<svg width="202" height="44" viewBox="0 0 202 44" fill="none" xmlns="http://www.w3.org/2000/svg">
<rect x="0.5" y="0.5" width="201" height="43" stroke="#E81212"/>
<path d="M34.068 26.12C33.332 26.12 32.72 25.984 32.232 25.712C31.752 25.44 31.388 25.06 31.14 24.572C30.892 24.084 30.756 23.516 30.732 22.868C30.724 22.54 30.72 22.188 30.72 21.812C30.72 21.436 30.724 21.076 30.732 20.732C30.756 20.084 30.892 19.516 31.14 19.028C31.388 18.54 31.752 18.16 32.232 17.888C32.72 17.616 33.332 17.48 34.068 17.48C34.62 17.48 35.104 17.556 35.52 17.708C35.936 17.86 36.28 18.064 36.552 18.32C36.832 18.576 37.044 18.864 37.188 19.184C37.332 19.496 37.412 19.82 37.428 20.156C37.436 20.228 37.412 20.288 37.356 20.336C37.308 20.384 37.248 20.408 37.176 20.408H36.516C36.444 20.408 36.38 20.388 36.324 20.348C36.276 20.308 36.24 20.236 36.216 20.132C36.08 19.508 35.824 19.08 35.448 18.848C35.08 18.616 34.616 18.5 34.056 18.5C33.416 18.5 32.908 18.684 32.532 19.052C32.156 19.412 31.952 19.992 31.92 20.792C31.896 21.448 31.896 22.12 31.92 22.808C31.952 23.608 32.156 24.192 32.532 24.56C32.908 24.92 33.416 25.1 34.056 25.1C34.616 25.1 35.08 24.984 35.448 24.752C35.824 24.52 36.08 24.092 36.216 23.468C36.24 23.364 36.276 23.292 36.324 23.252C36.38 23.212 36.444 23.192 36.516 23.192H37.176C37.248 23.192 37.308 23.216 37.356 23.264C37.412 23.312 37.436 23.372 37.428 23.444C37.412 23.78 37.332 24.108 37.188 24.428C37.044 24.74 36.832 25.024 36.552 25.28C36.28 25.536 35.936 25.74 35.52 25.892C35.104 26.044 34.62 26.12 34.068 26.12ZM39.3122 26C39.2322 26 39.1642 25.976 39.1082 25.928C39.0602 25.872 39.0362 25.804 39.0362 25.724V17.888C39.0362 17.8 39.0602 17.732 39.1082 17.684C39.1642 17.628 39.2322 17.6 39.3122 17.6H39.9122C40.0082 17.6 40.0802 17.624 40.1282 17.672C40.1762 17.72 40.2042 17.76 40.2122 17.792L42.7562 22.64L45.3122 17.792C45.3282 17.76 45.3562 17.72 45.3962 17.672C45.4442 17.624 45.5162 17.6 45.6122 17.6H46.2002C46.2882 17.6 46.3562 17.628 46.4042 17.684C46.4602 17.732 46.4882 17.8 46.4882 17.888V25.724C46.4882 25.804 46.4602 25.872 46.4042 25.928C46.3562 25.976 46.2882 26 46.2002 26H45.6122C45.5322 26 45.4642 25.976 45.4082 25.928C45.3602 25.872 45.3362 25.804 45.3362 25.724V19.82L43.3322 23.732C43.3002 23.812 43.2522 23.876 43.1882 23.924C43.1242 23.964 43.0442 23.984 42.9482 23.984H42.5762C42.4722 23.984 42.3882 23.964 42.3242 23.924C42.2682 23.876 42.2202 23.812 42.1802 23.732L40.1762 19.82V25.724C40.1762 25.804 40.1482 25.872 40.0922 25.928C40.0442 25.976 39.9802 26 39.9002 26H39.3122ZM51.5755 26.12C50.8955 26.12 50.3115 26.004 49.8235 25.772C49.3355 25.532 48.9595 25.168 48.6955 24.68C48.4315 24.184 48.2835 23.564 48.2515 22.82C48.2435 22.468 48.2395 22.132 48.2395 21.812C48.2395 21.484 48.2435 21.144 48.2515 20.792C48.2835 20.056 48.4355 19.444 48.7075 18.956C48.9875 18.46 49.3715 18.092 49.8595 17.852C50.3555 17.604 50.9275 17.48 51.5755 17.48C52.2315 17.48 52.8035 17.604 53.2915 17.852C53.7875 18.092 54.1755 18.46 54.4555 18.956C54.7355 19.444 54.8875 20.056 54.9115 20.792C54.9275 21.144 54.9355 21.484 54.9355 21.812C54.9355 22.132 54.9275 22.468 54.9115 22.82C54.8875 23.564 54.7395 24.184 54.4675 24.68C54.2035 25.168 53.8275 25.532 53.3395 25.772C52.8515 26.004 52.2635 26.12 51.5755 26.12ZM51.5755 25.1C52.1915 25.1 52.6915 24.916 53.0755 24.548C53.4675 24.18 53.6795 23.584 53.7115 22.76C53.7275 22.4 53.7355 22.08 53.7355 21.8C53.7355 21.512 53.7275 21.192 53.7115 20.84C53.6955 20.288 53.5915 19.84 53.3995 19.496C53.2155 19.152 52.9675 18.9 52.6555 18.74C52.3435 18.58 51.9835 18.5 51.5755 18.5C51.1835 18.5 50.8315 18.58 50.5195 18.74C50.2075 18.9 49.9555 19.152 49.7635 19.496C49.5795 19.84 49.4755 20.288 49.4515 20.84C49.4435 21.192 49.4395 21.512 49.4395 21.8C49.4395 22.08 49.4435 22.4 49.4515 22.76C49.4835 23.584 49.6955 24.18 50.0875 24.548C50.4795 24.916 50.9755 25.1 51.5755 25.1ZM58.7966 26C58.7166 26 58.6486 25.976 58.5926 25.928C58.5446 25.872 58.5206 25.804 58.5206 25.724V18.668H56.2166C56.1366 18.668 56.0686 18.644 56.0126 18.596C55.9646 18.54 55.9406 18.472 55.9406 18.392V17.888C55.9406 17.8 55.9646 17.732 56.0126 17.684C56.0686 17.628 56.1366 17.6 56.2166 17.6H62.0006C62.0886 17.6 62.1566 17.628 62.2046 17.684C62.2606 17.732 62.2886 17.8 62.2886 17.888V18.392C62.2886 18.472 62.2606 18.54 62.2046 18.596C62.1566 18.644 62.0886 18.668 62.0006 18.668H59.7086V25.724C59.7086 25.804 59.6806 25.872 59.6246 25.928C59.5766 25.976 59.5086 26 59.4206 26H58.7966ZM63.9098 26C63.8218 26 63.7538 25.976 63.7058 25.928C63.6578 25.872 63.6338 25.804 63.6338 25.724V17.888C63.6338 17.8 63.6578 17.732 63.7058 17.684C63.7538 17.628 63.8218 17.6 63.9098 17.6H66.9578C67.5498 17.6 68.0618 17.696 68.4938 17.888C68.9338 18.08 69.2738 18.368 69.5138 18.752C69.7538 19.128 69.8738 19.6 69.8738 20.168C69.8738 20.736 69.7538 21.208 69.5138 21.584C69.2738 21.96 68.9338 22.244 68.4938 22.436C68.0618 22.628 67.5498 22.724 66.9578 22.724H64.8338V25.724C64.8338 25.804 64.8058 25.872 64.7498 25.928C64.7018 25.976 64.6338 26 64.5458 26H63.9098ZM64.8218 21.716H66.8978C67.4898 21.716 67.9338 21.584 68.2298 21.32C68.5258 21.056 68.6738 20.672 68.6738 20.168C68.6738 19.672 68.5298 19.288 68.2418 19.016C67.9538 18.744 67.5058 18.608 66.8978 18.608H64.8218V21.716ZM71.6091 26C71.5211 26 71.4531 25.976 71.4051 25.928C71.3571 25.872 71.3331 25.804 71.3331 25.724V17.888C71.3331 17.8 71.3571 17.732 71.4051 17.684C71.4531 17.628 71.5211 17.6 71.6091 17.6H76.5651C76.6531 17.6 76.7211 17.628 76.7691 17.684C76.8171 17.732 76.8411 17.8 76.8411 17.888V18.344C76.8411 18.432 76.8171 18.5 76.7691 18.548C76.7211 18.596 76.6531 18.62 76.5651 18.62H72.4851V21.248H76.3011C76.3891 21.248 76.4571 21.276 76.5051 21.332C76.5531 21.38 76.5771 21.448 76.5771 21.536V21.98C76.5771 22.06 76.5531 22.128 76.5051 22.184C76.4571 22.232 76.3891 22.256 76.3011 22.256H72.4851V24.98H76.6611C76.7491 24.98 76.8171 25.004 76.8651 25.052C76.9131 25.1 76.9371 25.168 76.9371 25.256V25.724C76.9371 25.804 76.9131 25.872 76.8651 25.928C76.8171 25.976 76.7491 26 76.6611 26H71.6091ZM80.7224 26C80.6424 26 80.5744 25.976 80.5184 25.928C80.4704 25.872 80.4464 25.804 80.4464 25.724V18.668H78.1424C78.0624 18.668 77.9944 18.644 77.9384 18.596C77.8904 18.54 77.8664 18.472 77.8664 18.392V17.888C77.8664 17.8 77.8904 17.732 77.9384 17.684C77.9944 17.628 78.0624 17.6 78.1424 17.6H83.9264C84.0144 17.6 84.0824 17.628 84.1304 17.684C84.1864 17.732 84.2144 17.8 84.2144 17.888V18.392C84.2144 18.472 84.1864 18.54 84.1304 18.596C84.0824 18.644 84.0144 18.668 83.9264 18.668H81.6344V25.724C81.6344 25.804 81.6064 25.872 81.5504 25.928C81.5024 25.976 81.4344 26 81.3464 26H80.7224ZM85.8356 26C85.7476 26 85.6796 25.976 85.6316 25.928C85.5836 25.872 85.5596 25.804 85.5596 25.724V17.876C85.5596 17.796 85.5836 17.732 85.6316 17.684C85.6796 17.628 85.7476 17.6 85.8356 17.6H86.4476C86.5356 17.6 86.6036 17.628 86.6516 17.684C86.7076 17.732 86.7356 17.796 86.7356 17.876V20.792H88.5596C89.4396 20.792 90.1156 21.012 90.5876 21.452C91.0596 21.884 91.2956 22.52 91.2956 23.36C91.2956 23.816 91.1956 24.248 90.9956 24.656C90.8036 25.056 90.5036 25.38 90.0956 25.628C89.6956 25.876 89.1836 26 88.5596 26H85.8356ZM86.7356 24.992H88.4636C88.9836 24.992 89.3876 24.84 89.6756 24.536C89.9636 24.232 90.1076 23.832 90.1076 23.336C90.1076 22.824 89.9716 22.44 89.6996 22.184C89.4276 21.92 89.0156 21.788 88.4636 21.788H86.7356V24.992ZM96.0075 26C95.9195 26 95.8515 25.976 95.8035 25.928C95.7555 25.872 95.7315 25.804 95.7315 25.724V17.888C95.7315 17.8 95.7555 17.732 95.8035 17.684C95.8515 17.628 95.9195 17.6 96.0075 17.6H99.2955C99.8955 17.6 100.384 17.7 100.76 17.9C101.144 18.092 101.424 18.356 101.6 18.692C101.784 19.028 101.876 19.404 101.876 19.82C101.876 20.148 101.82 20.432 101.708 20.672C101.604 20.904 101.472 21.096 101.312 21.248C101.152 21.392 100.996 21.504 100.844 21.584C101.156 21.736 101.432 21.984 101.672 22.328C101.92 22.672 102.044 23.088 102.044 23.576C102.044 24.016 101.944 24.42 101.743 24.788C101.544 25.156 101.244 25.452 100.844 25.676C100.452 25.892 99.9635 26 99.3795 26H96.0075ZM96.9075 25.028H99.2235C99.7435 25.028 100.144 24.888 100.424 24.608C100.704 24.328 100.844 23.984 100.844 23.576C100.844 23.152 100.704 22.804 100.424 22.532C100.144 22.252 99.7435 22.112 99.2235 22.112H96.9075V25.028ZM96.9075 21.152H99.1155C99.6275 21.152 100.016 21.036 100.28 20.804C100.544 20.564 100.676 20.24 100.676 19.832C100.676 19.424 100.544 19.112 100.28 18.896C100.016 18.68 99.6275 18.572 99.1155 18.572H96.9075V21.152ZM106.771 26.12C106.035 26.12 105.423 25.984 104.935 25.712C104.455 25.44 104.091 25.06 103.843 24.572C103.595 24.084 103.459 23.516 103.435 22.868C103.427 22.54 103.423 22.188 103.423 21.812C103.423 21.436 103.427 21.076 103.435 20.732C103.459 20.084 103.595 19.516 103.843 19.028C104.091 18.54 104.455 18.16 104.935 17.888C105.423 17.616 106.035 17.48 106.771 17.48C107.323 17.48 107.807 17.556 108.223 17.708C108.639 17.86 108.983 18.064 109.255 18.32C109.535 18.576 109.747 18.864 109.891 19.184C110.035 19.496 110.115 19.82 110.131 20.156C110.139 20.228 110.115 20.288 110.059 20.336C110.011 20.384 109.951 20.408 109.879 20.408H109.219C109.147 20.408 109.083 20.388 109.027 20.348C108.979 20.308 108.943 20.236 108.919 20.132C108.783 19.508 108.527 19.08 108.151 18.848C107.783 18.616 107.319 18.5 106.759 18.5C106.119 18.5 105.611 18.684 105.235 19.052C104.859 19.412 104.655 19.992 104.623 20.792C104.599 21.448 104.599 22.12 104.623 22.808C104.655 23.608 104.859 24.192 105.235 24.56C105.611 24.92 106.119 25.1 106.759 25.1C107.319 25.1 107.783 24.984 108.151 24.752C108.527 24.52 108.783 24.092 108.919 23.468C108.943 23.364 108.979 23.292 109.027 23.252C109.083 23.212 109.147 23.192 109.219 23.192H109.879C109.951 23.192 110.011 23.216 110.059 23.264C110.115 23.312 110.139 23.372 110.131 23.444C110.115 23.78 110.035 24.108 109.891 24.428C109.747 24.74 109.535 25.024 109.255 25.28C108.983 25.536 108.639 25.74 108.223 25.892C107.807 26.044 107.323 26.12 106.771 26.12ZM112.015 26C111.927 26 111.859 25.976 111.811 25.928C111.763 25.872 111.739 25.804 111.739 25.724V17.888C111.739 17.8 111.763 17.732 111.811 17.684C111.859 17.628 111.927 17.6 112.015 17.6H116.971C117.059 17.6 117.127 17.628 117.175 17.684C117.223 17.732 117.247 17.8 117.247 17.888V18.344C117.247 18.432 117.223 18.5 117.175 18.548C117.127 18.596 117.059 18.62 116.971 18.62H112.891V21.248H116.707C116.795 21.248 116.863 21.276 116.911 21.332C116.959 21.38 116.983 21.448 116.983 21.536V21.98C116.983 22.06 116.959 22.128 116.911 22.184C116.863 22.232 116.795 22.256 116.707 22.256H112.891V24.98H117.067C117.155 24.98 117.223 25.004 117.271 25.052C117.319 25.1 117.343 25.168 117.343 25.256V25.724C117.343 25.804 117.319 25.872 117.271 25.928C117.223 25.976 117.155 26 117.067 26H112.015ZM124.97 26.12C124.29 26.12 123.706 26.004 123.218 25.772C122.73 25.532 122.354 25.168 122.09 24.68C121.826 24.184 121.678 23.564 121.646 22.82C121.638 22.468 121.634 22.132 121.634 21.812C121.634 21.484 121.638 21.144 121.646 20.792C121.678 20.056 121.83 19.444 122.102 18.956C122.382 18.46 122.766 18.092 123.254 17.852C123.75 17.604 124.322 17.48 124.97 17.48C125.626 17.48 126.198 17.604 126.686 17.852C127.182 18.092 127.57 18.46 127.85 18.956C128.13 19.444 128.282 20.056 128.306 20.792C128.322 21.144 128.33 21.484 128.33 21.812C128.33 22.132 128.322 22.468 128.306 22.82C128.282 23.564 128.134 24.184 127.862 24.68C127.598 25.168 127.222 25.532 126.734 25.772C126.246 26.004 125.658 26.12 124.97 26.12ZM124.97 25.1C125.586 25.1 126.086 24.916 126.47 24.548C126.862 24.18 127.074 23.584 127.106 22.76C127.122 22.4 127.13 22.08 127.13 21.8C127.13 21.512 127.122 21.192 127.106 20.84C127.09 20.288 126.986 19.84 126.794 19.496C126.61 19.152 126.362 18.9 126.05 18.74C125.738 18.58 125.378 18.5 124.97 18.5C124.578 18.5 124.226 18.58 123.914 18.74C123.602 18.9 123.35 19.152 123.158 19.496C122.974 19.84 122.87 20.288 122.846 20.84C122.838 21.192 122.834 21.512 122.834 21.8C122.834 22.08 122.838 22.4 122.846 22.76C122.878 23.584 123.09 24.18 123.482 24.548C123.874 24.916 124.37 25.1 124.97 25.1ZM132.191 26C132.111 26 132.043 25.976 131.987 25.928C131.939 25.872 131.915 25.804 131.915 25.724V18.668H129.611C129.531 18.668 129.463 18.644 129.407 18.596C129.359 18.54 129.335 18.472 129.335 18.392V17.888C129.335 17.8 129.359 17.732 129.407 17.684C129.463 17.628 129.531 17.6 129.611 17.6H135.395C135.483 17.6 135.551 17.628 135.599 17.684C135.655 17.732 135.683 17.8 135.683 17.888V18.392C135.683 18.472 135.655 18.54 135.599 18.596C135.551 18.644 135.483 18.668 135.395 18.668H133.103V25.724C133.103 25.804 133.075 25.872 133.019 25.928C132.971 25.976 132.903 26 132.815 26H132.191ZM139.56 26.12C139.072 26.12 138.64 26.064 138.264 25.952C137.888 25.84 137.572 25.688 137.316 25.496C137.06 25.296 136.856 25.068 136.704 24.812C136.56 24.556 136.476 24.28 136.452 23.984C136.444 23.912 136.464 23.856 136.512 23.816C136.568 23.776 136.632 23.756 136.704 23.756H137.304C137.376 23.756 137.44 23.772 137.496 23.804C137.56 23.836 137.608 23.904 137.64 24.008C137.736 24.328 137.944 24.592 138.264 24.8C138.584 25 139.012 25.1 139.548 25.1C139.924 25.1 140.264 25.044 140.568 24.932C140.872 24.812 141.116 24.644 141.3 24.428C141.484 24.204 141.576 23.936 141.576 23.624C141.576 23.152 141.404 22.788 141.06 22.532C140.724 22.268 140.264 22.136 139.68 22.136H138.816C138.736 22.136 138.672 22.112 138.624 22.064C138.576 22.008 138.552 21.94 138.552 21.86V21.44C138.552 21.352 138.576 21.284 138.624 21.236C138.672 21.18 138.736 21.152 138.816 21.152H139.632C140.128 21.152 140.528 21.044 140.832 20.828C141.144 20.612 141.3 20.268 141.3 19.796C141.3 19.532 141.22 19.304 141.06 19.112C140.908 18.92 140.704 18.772 140.448 18.668C140.192 18.556 139.904 18.5 139.584 18.5C139.096 18.5 138.688 18.588 138.36 18.764C138.032 18.94 137.828 19.224 137.748 19.616C137.724 19.704 137.688 19.768 137.64 19.808C137.592 19.84 137.532 19.856 137.46 19.856H136.812C136.74 19.856 136.676 19.832 136.62 19.784C136.572 19.736 136.552 19.676 136.56 19.604C136.584 19.3 136.668 19.02 136.812 18.764C136.956 18.5 137.152 18.272 137.4 18.08C137.656 17.888 137.968 17.74 138.336 17.636C138.704 17.532 139.124 17.48 139.596 17.48C140.244 17.48 140.78 17.588 141.204 17.804C141.628 18.02 141.948 18.3 142.164 18.644C142.38 18.98 142.488 19.344 142.488 19.736C142.488 19.976 142.456 20.212 142.392 20.444C142.336 20.676 142.236 20.888 142.092 21.08C141.956 21.272 141.768 21.44 141.528 21.584C141.816 21.72 142.048 21.896 142.224 22.112C142.408 22.32 142.544 22.556 142.632 22.82C142.728 23.076 142.776 23.352 142.776 23.648C142.776 24.136 142.644 24.564 142.38 24.932C142.124 25.3 141.756 25.592 141.276 25.808C140.796 26.016 140.224 26.12 139.56 26.12ZM144.758 26C144.67 26 144.602 25.976 144.554 25.928C144.506 25.872 144.482 25.804 144.482 25.724V17.876C144.482 17.796 144.506 17.732 144.554 17.684C144.602 17.628 144.67 17.6 144.758 17.6H145.37C145.458 17.6 145.526 17.628 145.574 17.684C145.63 17.732 145.658 17.796 145.658 17.876V20.792H147.194C148.066 20.792 148.738 21.012 149.21 21.452C149.69 21.884 149.93 22.52 149.93 23.36C149.93 23.816 149.83 24.248 149.63 24.656C149.438 25.056 149.138 25.38 148.73 25.628C148.322 25.876 147.81 26 147.194 26H144.758ZM145.658 24.992H147.098C147.618 24.992 148.018 24.84 148.298 24.536C148.586 24.232 148.73 23.832 148.73 23.336C148.73 22.824 148.594 22.44 148.322 22.184C148.05 21.92 147.642 21.788 147.098 21.788H145.658V24.992ZM151.358 26C151.27 26 151.202 25.976 151.154 25.928C151.106 25.872 151.082 25.804 151.082 25.724V17.876C151.082 17.796 151.106 17.732 151.154 17.684C151.202 17.628 151.27 17.6 151.358 17.6H151.994C152.074 17.6 152.138 17.628 152.186 17.684C152.242 17.732 152.27 17.796 152.27 17.876V25.724C152.27 25.804 152.242 25.872 152.186 25.928C152.138 25.976 152.074 26 151.994 26H151.358ZM154.636 26C154.548 26 154.48 25.976 154.432 25.928C154.384 25.872 154.36 25.804 154.36 25.724V17.888C154.36 17.8 154.384 17.732 154.432 17.684C154.48 17.628 154.548 17.6 154.636 17.6H157.924C158.524 17.6 159.012 17.7 159.388 17.9C159.772 18.092 160.052 18.356 160.228 18.692C160.412 19.028 160.504 19.404 160.504 19.82C160.504 20.148 160.448 20.432 160.336 20.672C160.232 20.904 160.1 21.096 159.94 21.248C159.78 21.392 159.624 21.504 159.472 21.584C159.784 21.736 160.06 21.984 160.3 22.328C160.548 22.672 160.672 23.088 160.672 23.576C160.672 24.016 160.572 24.42 160.372 24.788C160.172 25.156 159.872 25.452 159.472 25.676C159.08 25.892 158.592 26 158.008 26H154.636ZM155.536 25.028H157.852C158.372 25.028 158.772 24.888 159.052 24.608C159.332 24.328 159.472 23.984 159.472 23.576C159.472 23.152 159.332 22.804 159.052 22.532C158.772 22.252 158.372 22.112 157.852 22.112H155.536V25.028ZM155.536 21.152H157.744C158.256 21.152 158.644 21.036 158.908 20.804C159.172 20.564 159.304 20.24 159.304 19.832C159.304 19.424 159.172 19.112 158.908 18.896C158.644 18.68 158.256 18.572 157.744 18.572H155.536V21.152ZM162.652 26C162.564 26 162.496 25.976 162.448 25.928C162.4 25.872 162.376 25.804 162.376 25.724V17.876C162.376 17.796 162.4 17.732 162.448 17.684C162.496 17.628 162.564 17.6 162.652 17.6H163.264C163.352 17.6 163.42 17.628 163.468 17.684C163.524 17.732 163.552 17.796 163.552 17.876V20.792H165.088C165.96 20.792 166.632 21.012 167.104 21.452C167.584 21.884 167.824 22.52 167.824 23.36C167.824 23.816 167.724 24.248 167.524 24.656C167.332 25.056 167.032 25.38 166.624 25.628C166.216 25.876 165.704 26 165.088 26H162.652ZM163.552 24.992H164.992C165.512 24.992 165.912 24.84 166.192 24.536C166.48 24.232 166.624 23.832 166.624 23.336C166.624 22.824 166.488 22.44 166.216 22.184C165.944 21.92 165.536 21.788 164.992 21.788H163.552V24.992ZM169.252 26C169.164 26 169.096 25.976 169.048 25.928C169 25.872 168.976 25.804 168.976 25.724V17.876C168.976 17.796 169 17.732 169.048 17.684C169.096 17.628 169.164 17.6 169.252 17.6H169.888C169.968 17.6 170.032 17.628 170.08 17.684C170.136 17.732 170.164 17.796 170.164 17.876V25.724C170.164 25.804 170.136 25.872 170.08 25.928C170.032 25.976 169.968 26 169.888 26H169.252Z" fill="#E81212"/>
</svg>
