<svg width="130" height="44" viewBox="0 0 130 44" fill="none" xmlns="http://www.w3.org/2000/svg">
<rect x="1" y="0.5" width="128" height="43" stroke="#E81212"/>
<path d="M31.82 26C31.732 26 31.664 25.976 31.616 25.928C31.568 25.872 31.544 25.804 31.544 25.724V17.888C31.544 17.8 31.568 17.732 31.616 17.684C31.664 17.628 31.732 17.6 31.82 17.6H35.108C35.708 17.6 36.196 17.7 36.572 17.9C36.956 18.092 37.236 18.356 37.412 18.692C37.596 19.028 37.688 19.404 37.688 19.82C37.688 20.148 37.632 20.432 37.52 20.672C37.416 20.904 37.284 21.096 37.124 21.248C36.964 21.392 36.808 21.504 36.656 21.584C36.968 21.736 37.244 21.984 37.484 22.328C37.732 22.672 37.856 23.088 37.856 23.576C37.856 24.016 37.756 24.42 37.556 24.788C37.356 25.156 37.056 25.452 36.656 25.676C36.264 25.892 35.776 26 35.192 26H31.82ZM32.72 25.028H35.036C35.556 25.028 35.956 24.888 36.236 24.608C36.516 24.328 36.656 23.984 36.656 23.576C36.656 23.152 36.516 22.804 36.236 22.532C35.956 22.252 35.556 22.112 35.036 22.112H32.72V25.028ZM32.72 21.152H34.928C35.44 21.152 35.828 21.036 36.092 20.804C36.356 20.564 36.488 20.24 36.488 19.832C36.488 19.424 36.356 19.112 36.092 18.896C35.828 18.68 35.44 18.572 34.928 18.572H32.72V21.152ZM42.5836 26.12C41.8476 26.12 41.2356 25.984 40.7476 25.712C40.2676 25.44 39.9036 25.06 39.6556 24.572C39.4076 24.084 39.2716 23.516 39.2476 22.868C39.2396 22.54 39.2356 22.188 39.2356 21.812C39.2356 21.436 39.2396 21.076 39.2476 20.732C39.2716 20.084 39.4076 19.516 39.6556 19.028C39.9036 18.54 40.2676 18.16 40.7476 17.888C41.2356 17.616 41.8476 17.48 42.5836 17.48C43.1356 17.48 43.6196 17.556 44.0356 17.708C44.4516 17.86 44.7956 18.064 45.0676 18.32C45.3476 18.576 45.5596 18.864 45.7036 19.184C45.8476 19.496 45.9276 19.82 45.9436 20.156C45.9516 20.228 45.9276 20.288 45.8716 20.336C45.8236 20.384 45.7636 20.408 45.6916 20.408H45.0316C44.9596 20.408 44.8956 20.388 44.8396 20.348C44.7916 20.308 44.7556 20.236 44.7316 20.132C44.5956 19.508 44.3396 19.08 43.9636 18.848C43.5956 18.616 43.1316 18.5 42.5716 18.5C41.9316 18.5 41.4236 18.684 41.0476 19.052C40.6716 19.412 40.4676 19.992 40.4356 20.792C40.4116 21.448 40.4116 22.12 40.4356 22.808C40.4676 23.608 40.6716 24.192 41.0476 24.56C41.4236 24.92 41.9316 25.1 42.5716 25.1C43.1316 25.1 43.5956 24.984 43.9636 24.752C44.3396 24.52 44.5956 24.092 44.7316 23.468C44.7556 23.364 44.7916 23.292 44.8396 23.252C44.8956 23.212 44.9596 23.192 45.0316 23.192H45.6916C45.7636 23.192 45.8236 23.216 45.8716 23.264C45.9276 23.312 45.9516 23.372 45.9436 23.444C45.9276 23.78 45.8476 24.108 45.7036 24.428C45.5596 24.74 45.3476 25.024 45.0676 25.28C44.7956 25.536 44.4516 25.74 44.0356 25.892C43.6196 26.044 43.1356 26.12 42.5836 26.12ZM47.8278 26C47.7398 26 47.6718 25.976 47.6238 25.928C47.5758 25.872 47.5518 25.804 47.5518 25.724V17.888C47.5518 17.8 47.5758 17.732 47.6238 17.684C47.6718 17.628 47.7398 17.6 47.8278 17.6H52.7838C52.8718 17.6 52.9398 17.628 52.9878 17.684C53.0358 17.732 53.0598 17.8 53.0598 17.888V18.344C53.0598 18.432 53.0358 18.5 52.9878 18.548C52.9398 18.596 52.8718 18.62 52.7838 18.62H48.7038V21.248H52.5198C52.6078 21.248 52.6758 21.276 52.7238 21.332C52.7718 21.38 52.7958 21.448 52.7958 21.536V21.98C52.7958 22.06 52.7718 22.128 52.7238 22.184C52.6758 22.232 52.6078 22.256 52.5198 22.256H48.7038V24.98H52.8798C52.9678 24.98 53.0358 25.004 53.0838 25.052C53.1318 25.1 53.1558 25.168 53.1558 25.256V25.724C53.1558 25.804 53.1318 25.872 53.0838 25.928C53.0358 25.976 52.9678 26 52.8798 26H47.8278ZM57.2066 26C57.1426 26 57.0866 25.976 57.0386 25.928C56.9906 25.88 56.9666 25.824 56.9666 25.76C56.9666 25.72 56.9706 25.676 56.9786 25.628L59.9546 17.864C59.9866 17.784 60.0306 17.72 60.0866 17.672C60.1426 17.624 60.2266 17.6 60.3386 17.6H61.1546C61.2586 17.6 61.3386 17.624 61.3946 17.672C61.4586 17.72 61.5066 17.784 61.5386 17.864L64.5026 25.628C64.5186 25.676 64.5266 25.72 64.5266 25.76C64.5266 25.824 64.5026 25.88 64.4546 25.928C64.4066 25.976 64.3506 26 64.2866 26H63.6746C63.5786 26 63.5066 25.976 63.4586 25.928C63.4186 25.88 63.3906 25.836 63.3746 25.796L62.7146 24.092H58.7786L58.1186 25.796C58.1106 25.836 58.0826 25.88 58.0346 25.928C57.9866 25.976 57.9146 26 57.8186 26H57.2066ZM59.1266 23.06H62.3666L60.7466 18.8L59.1266 23.06ZM66.0856 26C65.9976 26 65.9296 25.976 65.8816 25.928C65.8336 25.872 65.8096 25.804 65.8096 25.724V17.888C65.8096 17.8 65.8336 17.732 65.8816 17.684C65.9296 17.628 65.9976 17.6 66.0856 17.6H66.6976C66.7856 17.6 66.8536 17.628 66.9016 17.684C66.9576 17.732 66.9856 17.8 66.9856 17.888V21.2H68.3416L70.4776 17.792C70.5176 17.728 70.5696 17.68 70.6336 17.648C70.6976 17.616 70.7816 17.6 70.8856 17.6H71.5336C71.6216 17.6 71.6856 17.624 71.7256 17.672C71.7656 17.72 71.7856 17.776 71.7856 17.84C71.7856 17.888 71.7656 17.94 71.7256 17.996L69.4216 21.668L71.9536 25.58C71.9776 25.612 71.9896 25.656 71.9896 25.712C71.9896 25.792 71.9616 25.86 71.9056 25.916C71.8576 25.972 71.7936 26 71.7136 26H71.0296C70.9416 26 70.8736 25.984 70.8256 25.952C70.7856 25.912 70.7496 25.868 70.7176 25.82L68.3896 22.28H66.9856V25.724C66.9856 25.804 66.9576 25.872 66.9016 25.928C66.8536 25.976 66.7856 26 66.6976 26H66.0856ZM79.9414 27.68C79.8534 27.68 79.7854 27.652 79.7374 27.596C79.6894 27.548 79.6654 27.484 79.6654 27.404V26H73.7614C73.6734 26 73.6054 25.972 73.5574 25.916C73.5094 25.86 73.4854 25.792 73.4854 25.712V17.876C73.4854 17.796 73.5094 17.732 73.5574 17.684C73.6054 17.628 73.6734 17.6 73.7614 17.6H74.3734C74.4614 17.6 74.5294 17.628 74.5774 17.684C74.6334 17.732 74.6614 17.796 74.6614 17.876V24.92H78.7894V17.876C78.7894 17.796 78.8134 17.732 78.8614 17.684C78.9174 17.628 78.9854 17.6 79.0654 17.6H79.6774C79.7654 17.6 79.8334 17.628 79.8814 17.684C79.9374 17.732 79.9654 17.796 79.9654 17.876V24.92H80.5534C80.6414 24.92 80.7094 24.948 80.7574 25.004C80.8134 25.052 80.8414 25.116 80.8414 25.196V27.404C80.8414 27.484 80.8134 27.548 80.7574 27.596C80.7094 27.652 80.6414 27.68 80.5534 27.68H79.9414ZM82.5739 26C82.4859 26 82.4179 25.972 82.3699 25.916C82.3219 25.86 82.2979 25.792 82.2979 25.712V17.888C82.2979 17.8 82.3219 17.732 82.3699 17.684C82.4259 17.628 82.4939 17.6 82.5739 17.6H83.1979C83.2779 17.6 83.3419 17.628 83.3899 17.684C83.4459 17.732 83.4739 17.8 83.4739 17.888V24.092L87.9499 17.768C87.9739 17.736 88.0059 17.7 88.0459 17.66C88.0939 17.62 88.1619 17.6 88.2499 17.6H88.8379C88.9179 17.6 88.9819 17.628 89.0299 17.684C89.0859 17.732 89.1139 17.8 89.1139 17.888V25.724C89.1139 25.804 89.0859 25.872 89.0299 25.928C88.9819 25.976 88.9179 26 88.8379 26H88.2259C88.1459 26 88.0779 25.976 88.0219 25.928C87.9659 25.872 87.9379 25.804 87.9379 25.724V19.568L83.4739 25.832C83.4579 25.856 83.4259 25.892 83.3779 25.94C83.3299 25.98 83.2619 26 83.1739 26H82.5739ZM91.4802 26C91.3922 26 91.3242 25.972 91.2762 25.916C91.2282 25.86 91.2042 25.792 91.2042 25.712V17.888C91.2042 17.8 91.2282 17.732 91.2762 17.684C91.3322 17.628 91.4002 17.6 91.4802 17.6H92.1042C92.1842 17.6 92.2482 17.628 92.2962 17.684C92.3522 17.732 92.3802 17.8 92.3802 17.888V24.092L96.8562 17.768C96.8802 17.736 96.9122 17.7 96.9522 17.66C97.0002 17.62 97.0682 17.6 97.1562 17.6H97.7442C97.8242 17.6 97.8882 17.628 97.9362 17.684C97.9922 17.732 98.0202 17.8 98.0202 17.888V25.724C98.0202 25.804 97.9922 25.872 97.9362 25.928C97.8882 25.976 97.8242 26 97.7442 26H97.1322C97.0522 26 96.9842 25.976 96.9282 25.928C96.8722 25.872 96.8442 25.804 96.8442 25.724V19.568L92.3802 25.832C92.3642 25.856 92.3322 25.892 92.2842 25.94C92.2362 25.98 92.1682 26 92.0802 26H91.4802Z" fill="#E81212"/>
</svg>
