<svg width="184" height="44" viewBox="0 0 184 44" fill="none" xmlns="http://www.w3.org/2000/svg">
<rect x="0.5" y="0.5" width="183" height="43" stroke="#E81212"/>
<path d="M31.32 26C31.232 26 31.164 25.976 31.116 25.928C31.068 25.872 31.044 25.804 31.044 25.724V17.888C31.044 17.8 31.068 17.732 31.116 17.684C31.164 17.628 31.232 17.6 31.32 17.6H37.236C37.324 17.6 37.392 17.628 37.44 17.684C37.496 17.732 37.524 17.8 37.524 17.888V25.724C37.524 25.804 37.496 25.872 37.44 25.928C37.392 25.976 37.324 26 37.236 26H36.624C36.544 26 36.476 25.976 36.42 25.928C36.372 25.872 36.348 25.804 36.348 25.724V18.68H32.22V25.724C32.22 25.804 32.192 25.872 32.136 25.928C32.088 25.976 32.02 26 31.932 26H31.32ZM39.8747 26C39.7867 26 39.7187 25.976 39.6707 25.928C39.6227 25.872 39.5987 25.804 39.5987 25.724V17.888C39.5987 17.8 39.6227 17.732 39.6707 17.684C39.7187 17.628 39.7867 17.6 39.8747 17.6H44.8307C44.9187 17.6 44.9867 17.628 45.0347 17.684C45.0827 17.732 45.1067 17.8 45.1067 17.888V18.344C45.1067 18.432 45.0827 18.5 45.0347 18.548C44.9867 18.596 44.9187 18.62 44.8307 18.62H40.7507V21.248H44.5667C44.6547 21.248 44.7227 21.276 44.7707 21.332C44.8187 21.38 44.8427 21.448 44.8427 21.536V21.98C44.8427 22.06 44.8187 22.128 44.7707 22.184C44.7227 22.232 44.6547 22.256 44.5667 22.256H40.7507V24.98H44.9267C45.0147 24.98 45.0827 25.004 45.1307 25.052C45.1787 25.1 45.2027 25.168 45.2027 25.256V25.724C45.2027 25.804 45.1787 25.872 45.1307 25.928C45.0827 25.976 45.0147 26 44.9267 26H39.8747ZM47.152 26C47.064 26 46.996 25.976 46.948 25.928C46.9 25.872 46.876 25.804 46.876 25.724V17.888C46.876 17.8 46.9 17.732 46.948 17.684C46.996 17.628 47.064 17.6 47.152 17.6H50.2C50.792 17.6 51.304 17.696 51.736 17.888C52.176 18.08 52.516 18.368 52.756 18.752C52.996 19.128 53.116 19.6 53.116 20.168C53.116 20.736 52.996 21.208 52.756 21.584C52.516 21.96 52.176 22.244 51.736 22.436C51.304 22.628 50.792 22.724 50.2 22.724H48.076V25.724C48.076 25.804 48.048 25.872 47.992 25.928C47.944 25.976 47.876 26 47.788 26H47.152ZM48.064 21.716H50.14C50.732 21.716 51.176 21.584 51.472 21.32C51.768 21.056 51.916 20.672 51.916 20.168C51.916 19.672 51.772 19.288 51.484 19.016C51.196 18.744 50.748 18.608 50.14 18.608H48.064V21.716ZM54.8513 26C54.7633 26 54.6953 25.976 54.6473 25.928C54.5993 25.872 54.5753 25.804 54.5753 25.724V17.888C54.5753 17.8 54.5993 17.732 54.6473 17.684C54.6953 17.628 54.7633 17.6 54.8513 17.6H59.8073C59.8953 17.6 59.9633 17.628 60.0113 17.684C60.0593 17.732 60.0833 17.8 60.0833 17.888V18.344C60.0833 18.432 60.0593 18.5 60.0113 18.548C59.9633 18.596 59.8953 18.62 59.8073 18.62H55.7273V21.248H59.5433C59.6313 21.248 59.6993 21.276 59.7473 21.332C59.7953 21.38 59.8193 21.448 59.8193 21.536V21.98C59.8193 22.06 59.7953 22.128 59.7473 22.184C59.6993 22.232 59.6313 22.256 59.5433 22.256H55.7273V24.98H59.9033C59.9913 24.98 60.0593 25.004 60.1073 25.052C60.1553 25.1 60.1793 25.168 60.1793 25.256V25.724C60.1793 25.804 60.1553 25.872 60.1073 25.928C60.0593 25.976 59.9913 26 59.9033 26H54.8513ZM62.1286 26C62.0406 26 61.9726 25.972 61.9246 25.916C61.8766 25.86 61.8526 25.792 61.8526 25.712V17.888C61.8526 17.8 61.8766 17.732 61.9246 17.684C61.9806 17.628 62.0486 17.6 62.1286 17.6H62.7526C62.8326 17.6 62.8966 17.628 62.9446 17.684C63.0006 17.732 63.0286 17.8 63.0286 17.888V24.092L67.5046 17.768C67.5286 17.736 67.5606 17.7 67.6006 17.66C67.6486 17.62 67.7166 17.6 67.8046 17.6H68.3926C68.4726 17.6 68.5366 17.628 68.5846 17.684C68.6406 17.732 68.6686 17.8 68.6686 17.888V25.724C68.6686 25.804 68.6406 25.872 68.5846 25.928C68.5366 25.976 68.4726 26 68.3926 26H67.7806C67.7006 26 67.6326 25.976 67.5766 25.928C67.5206 25.872 67.4926 25.804 67.4926 25.724V19.568L63.0286 25.832C63.0126 25.856 62.9806 25.892 62.9326 25.94C62.8846 25.98 62.8166 26 62.7286 26H62.1286ZM65.2246 17.12C64.7446 17.12 64.3686 17.048 64.0966 16.904C63.8326 16.76 63.6446 16.576 63.5326 16.352C63.4206 16.12 63.3646 15.88 63.3646 15.632C63.3646 15.568 63.3846 15.516 63.4246 15.476C63.4646 15.428 63.5206 15.404 63.5926 15.404H64.0126C64.0846 15.404 64.1406 15.428 64.1806 15.476C64.2206 15.516 64.2406 15.568 64.2406 15.632C64.2406 15.752 64.2646 15.868 64.3126 15.98C64.3686 16.092 64.4686 16.188 64.6126 16.268C64.7566 16.34 64.9606 16.376 65.2246 16.376C65.4966 16.376 65.7006 16.34 65.8366 16.268C65.9806 16.188 66.0766 16.092 66.1246 15.98C66.1806 15.868 66.2086 15.752 66.2086 15.632C66.2086 15.568 66.2286 15.516 66.2686 15.476C66.3086 15.428 66.3646 15.404 66.4366 15.404H66.8566C66.9286 15.404 66.9846 15.428 67.0246 15.476C67.0646 15.516 67.0846 15.568 67.0846 15.632C67.0846 15.88 67.0286 16.12 66.9166 16.352C66.8046 16.576 66.6126 16.76 66.3406 16.904C66.0766 17.048 65.7046 17.12 65.2246 17.12ZM72.8708 26C72.7908 26 72.7228 25.976 72.6668 25.928C72.6188 25.872 72.5948 25.804 72.5948 25.724V18.668H70.2908C70.2108 18.668 70.1428 18.644 70.0868 18.596C70.0388 18.54 70.0148 18.472 70.0148 18.392V17.888C70.0148 17.8 70.0388 17.732 70.0868 17.684C70.1428 17.628 70.2108 17.6 70.2908 17.6H76.0748C76.1628 17.6 76.2308 17.628 76.2788 17.684C76.3348 17.732 76.3628 17.8 76.3628 17.888V18.392C76.3628 18.472 76.3348 18.54 76.2788 18.596C76.2308 18.644 76.1628 18.668 76.0748 18.668H73.7828V25.724C73.7828 25.804 73.7548 25.872 73.6988 25.928C73.6508 25.976 73.5828 26 73.4948 26H72.8708ZM77.9841 26C77.8961 26 77.8281 25.972 77.7801 25.916C77.7321 25.86 77.7081 25.792 77.7081 25.712V17.888C77.7081 17.8 77.7321 17.732 77.7801 17.684C77.8361 17.628 77.9041 17.6 77.9841 17.6H78.6081C78.6881 17.6 78.7521 17.628 78.8001 17.684C78.8561 17.732 78.8841 17.8 78.8841 17.888V24.092L83.3601 17.768C83.3841 17.736 83.4161 17.7 83.4561 17.66C83.5041 17.62 83.5721 17.6 83.6601 17.6H84.2481C84.3281 17.6 84.3921 17.628 84.4401 17.684C84.4961 17.732 84.5241 17.8 84.5241 17.888V25.724C84.5241 25.804 84.4961 25.872 84.4401 25.928C84.3921 25.976 84.3281 26 84.2481 26H83.6361C83.5561 26 83.4881 25.976 83.4321 25.928C83.3761 25.872 83.3481 25.804 83.3481 25.724V19.568L78.8841 25.832C78.8681 25.856 78.8361 25.892 78.7881 25.94C78.7401 25.98 78.6721 26 78.5841 26H77.9841ZM89.8317 26C89.7437 26 89.6757 25.976 89.6277 25.928C89.5797 25.872 89.5557 25.804 89.5557 25.724V17.888C89.5557 17.8 89.5797 17.732 89.6277 17.684C89.6757 17.628 89.7437 17.6 89.8317 17.6H93.1197C93.7197 17.6 94.2077 17.7 94.5837 17.9C94.9677 18.092 95.2477 18.356 95.4237 18.692C95.6077 19.028 95.6997 19.404 95.6997 19.82C95.6997 20.148 95.6437 20.432 95.5317 20.672C95.4277 20.904 95.2957 21.096 95.1357 21.248C94.9757 21.392 94.8197 21.504 94.6677 21.584C94.9797 21.736 95.2557 21.984 95.4957 22.328C95.7437 22.672 95.8677 23.088 95.8677 23.576C95.8677 24.016 95.7677 24.42 95.5677 24.788C95.3677 25.156 95.0677 25.452 94.6677 25.676C94.2757 25.892 93.7877 26 93.2037 26H89.8317ZM90.7317 25.028H93.0477C93.5677 25.028 93.9677 24.888 94.2477 24.608C94.5277 24.328 94.6677 23.984 94.6677 23.576C94.6677 23.152 94.5277 22.804 94.2477 22.532C93.9677 22.252 93.5677 22.112 93.0477 22.112H90.7317V25.028ZM90.7317 21.152H92.9397C93.4517 21.152 93.8397 21.036 94.1037 20.804C94.3677 20.564 94.4997 20.24 94.4997 19.832C94.4997 19.424 94.3677 19.112 94.1037 18.896C93.8397 18.68 93.4517 18.572 92.9397 18.572H90.7317V21.152ZM100.789 26C100.701 26 100.633 25.976 100.585 25.928C100.537 25.872 100.513 25.804 100.513 25.724V17.888C100.513 17.8 100.537 17.732 100.585 17.684C100.633 17.628 100.701 17.6 100.789 17.6H101.401C101.489 17.6 101.557 17.628 101.605 17.684C101.661 17.732 101.689 17.8 101.689 17.888V21.2H103.045L105.181 17.792C105.221 17.728 105.273 17.68 105.337 17.648C105.401 17.616 105.485 17.6 105.589 17.6H106.237C106.325 17.6 106.389 17.624 106.429 17.672C106.469 17.72 106.489 17.776 106.489 17.84C106.489 17.888 106.469 17.94 106.429 17.996L104.125 21.668L106.657 25.58C106.681 25.612 106.693 25.656 106.693 25.712C106.693 25.792 106.665 25.86 106.609 25.916C106.561 25.972 106.497 26 106.417 26H105.733C105.645 26 105.577 25.984 105.529 25.952C105.489 25.912 105.453 25.868 105.421 25.82L103.093 22.28H101.689V25.724C101.689 25.804 101.661 25.872 101.605 25.928C101.557 25.976 101.489 26 101.401 26H100.789ZM107.625 26C107.561 26 107.505 25.976 107.457 25.928C107.409 25.88 107.385 25.824 107.385 25.76C107.385 25.72 107.389 25.676 107.397 25.628L110.373 17.864C110.405 17.784 110.449 17.72 110.505 17.672C110.561 17.624 110.645 17.6 110.757 17.6H111.573C111.677 17.6 111.757 17.624 111.813 17.672C111.877 17.72 111.925 17.784 111.957 17.864L114.921 25.628C114.937 25.676 114.945 25.72 114.945 25.76C114.945 25.824 114.921 25.88 114.873 25.928C114.825 25.976 114.769 26 114.705 26H114.093C113.997 26 113.925 25.976 113.877 25.928C113.837 25.88 113.809 25.836 113.793 25.796L113.133 24.092H109.197L108.537 25.796C108.529 25.836 108.501 25.88 108.453 25.928C108.405 25.976 108.333 26 108.237 26H107.625ZM109.545 23.06H112.785L111.165 18.8L109.545 23.06ZM118.34 26C118.26 26 118.192 25.976 118.136 25.928C118.088 25.872 118.064 25.804 118.064 25.724V18.668H115.76C115.68 18.668 115.612 18.644 115.556 18.596C115.508 18.54 115.484 18.472 115.484 18.392V17.888C115.484 17.8 115.508 17.732 115.556 17.684C115.612 17.628 115.68 17.6 115.76 17.6H121.544C121.632 17.6 121.7 17.628 121.748 17.684C121.804 17.732 121.832 17.8 121.832 17.888V18.392C121.832 18.472 121.804 18.54 121.748 18.596C121.7 18.644 121.632 18.668 121.544 18.668H119.252V25.724C119.252 25.804 119.224 25.872 119.168 25.928C119.12 25.976 119.052 26 118.964 26H118.34ZM122.613 26C122.549 26 122.493 25.976 122.445 25.928C122.397 25.88 122.373 25.824 122.373 25.76C122.373 25.72 122.377 25.676 122.385 25.628L125.361 17.864C125.393 17.784 125.437 17.72 125.493 17.672C125.549 17.624 125.633 17.6 125.745 17.6H126.561C126.665 17.6 126.745 17.624 126.801 17.672C126.865 17.72 126.913 17.784 126.945 17.864L129.909 25.628C129.925 25.676 129.933 25.72 129.933 25.76C129.933 25.824 129.909 25.88 129.861 25.928C129.813 25.976 129.757 26 129.693 26H129.081C128.985 26 128.913 25.976 128.865 25.928C128.825 25.88 128.797 25.836 128.781 25.796L128.121 24.092H124.185L123.525 25.796C123.517 25.836 123.489 25.88 123.441 25.928C123.393 25.976 123.321 26 123.225 26H122.613ZM124.533 23.06H127.773L126.153 18.8L124.533 23.06ZM136.688 26C136.608 26 136.54 25.976 136.484 25.928C136.436 25.872 136.412 25.804 136.412 25.724V18.68H133.436V20.612C133.436 21.572 133.384 22.392 133.28 23.072C133.176 23.744 133.016 24.292 132.8 24.716C132.584 25.132 132.304 25.444 131.96 25.652C131.624 25.852 131.216 25.964 130.736 25.988C130.656 25.996 130.588 25.972 130.532 25.916C130.476 25.86 130.448 25.788 130.448 25.7V25.172C130.448 25.012 130.532 24.92 130.7 24.896C130.948 24.856 131.168 24.748 131.36 24.572C131.56 24.396 131.728 24.136 131.864 23.792C132 23.44 132.104 22.992 132.176 22.448C132.248 21.896 132.284 21.236 132.284 20.468V17.876C132.284 17.796 132.308 17.732 132.356 17.684C132.412 17.628 132.48 17.6 132.56 17.6H137.3C137.388 17.6 137.456 17.628 137.504 17.684C137.56 17.732 137.588 17.8 137.588 17.888V25.724C137.588 25.804 137.56 25.872 137.504 25.928C137.456 25.976 137.388 26 137.3 26H136.688ZM142.689 26.12C142.009 26.12 141.425 26.004 140.937 25.772C140.449 25.532 140.073 25.168 139.809 24.68C139.545 24.184 139.397 23.564 139.365 22.82C139.357 22.468 139.353 22.132 139.353 21.812C139.353 21.484 139.357 21.144 139.365 20.792C139.397 20.056 139.549 19.444 139.821 18.956C140.101 18.46 140.485 18.092 140.973 17.852C141.469 17.604 142.041 17.48 142.689 17.48C143.345 17.48 143.917 17.604 144.405 17.852C144.901 18.092 145.289 18.46 145.569 18.956C145.849 19.444 146.001 20.056 146.025 20.792C146.041 21.144 146.049 21.484 146.049 21.812C146.049 22.132 146.041 22.468 146.025 22.82C146.001 23.564 145.853 24.184 145.581 24.68C145.317 25.168 144.941 25.532 144.453 25.772C143.965 26.004 143.377 26.12 142.689 26.12ZM142.689 25.1C143.305 25.1 143.805 24.916 144.189 24.548C144.581 24.18 144.793 23.584 144.825 22.76C144.841 22.4 144.849 22.08 144.849 21.8C144.849 21.512 144.841 21.192 144.825 20.84C144.809 20.288 144.705 19.84 144.513 19.496C144.329 19.152 144.081 18.9 143.769 18.74C143.457 18.58 143.097 18.5 142.689 18.5C142.297 18.5 141.945 18.58 141.633 18.74C141.321 18.9 141.069 19.152 140.877 19.496C140.693 19.84 140.589 20.288 140.565 20.84C140.557 21.192 140.553 21.512 140.553 21.8C140.553 22.08 140.557 22.4 140.565 22.76C140.597 23.584 140.809 24.18 141.201 24.548C141.593 24.916 142.089 25.1 142.689 25.1ZM148.074 26C147.986 26 147.918 25.976 147.87 25.928C147.822 25.872 147.798 25.804 147.798 25.724V17.888C147.798 17.8 147.822 17.732 147.87 17.684C147.918 17.628 147.986 17.6 148.074 17.6H152.694C152.782 17.6 152.85 17.628 152.898 17.684C152.954 17.732 152.982 17.8 152.982 17.888V18.368C152.982 18.448 152.954 18.516 152.898 18.572C152.85 18.62 152.782 18.644 152.694 18.644H148.974V25.724C148.974 25.804 148.946 25.872 148.89 25.928C148.842 25.976 148.774 26 148.686 26H148.074Z" fill="#E81212"/>
</svg>
