<svg width="192" height="30" viewBox="0 0 192 30" fill="none" xmlns="http://www.w3.org/2000/svg">
<rect width="192" height="30" fill="white"/>
<path d="M14.5493 8.3335H9.45596C7.18396 8.3335 5.33862 10.1788 5.33862 12.4508V17.5442C5.33862 19.8162 7.18396 21.6615 9.45596 21.6615H14.5493C16.8213 21.6615 18.6666 19.8162 18.6666 17.5442V12.4508C18.6666 10.1788 16.8213 8.3335 14.5493 8.3335ZM17.1786 17.5495C17.1786 19.0002 16 20.1842 14.544 20.1842H9.45062C7.99996 20.1842 6.81596 19.0055 6.81596 17.5495V12.4562C6.81596 11.0055 7.99462 9.8215 9.45062 9.8215H14.544C15.9946 9.8215 17.1786 11.0002 17.1786 12.4562V17.5495Z" fill="#E81212"/>
<path d="M11.9999 11.5923C10.1226 11.5923 8.59192 13.123 8.59192 15.0003C8.59192 16.8776 10.1226 18.4083 11.9999 18.4083C13.8773 18.4083 15.4079 16.8776 15.4079 15.0003C15.4079 13.123 13.8773 11.5923 11.9999 11.5923ZM11.9999 17.0696C10.8586 17.0696 9.93059 16.1416 9.93059 15.0003C9.93059 13.859 10.8586 12.931 11.9999 12.931C13.1413 12.931 14.0693 13.859 14.0693 15.0003C14.0693 16.1416 13.1413 17.0696 11.9999 17.0696Z" fill="#E81212"/>
<path d="M15.6675 11.9658C15.9815 11.9149 16.1948 11.6191 16.1439 11.3051C16.093 10.9911 15.7972 10.7778 15.4832 10.8287C15.1692 10.8796 14.9559 11.1754 15.0068 11.4894C15.0577 11.8034 15.3535 12.0167 15.6675 11.9658Z" fill="#E81212"/>
<path d="M40.2622 21.278C39.1608 21.278 38.2368 21.096 37.4902 20.732C36.7528 20.368 36.1835 19.8547 35.7822 19.192C35.3902 18.5293 35.1475 17.764 35.0542 16.896C35.0448 16.7653 35.0355 16.5927 35.0262 16.378C35.0262 16.1633 35.0262 15.9347 35.0262 15.692C35.0262 15.4493 35.0262 15.2207 35.0262 15.006C35.0355 14.7913 35.0448 14.6233 35.0542 14.502C35.1195 13.8953 35.2688 13.326 35.5022 12.794C35.7448 12.262 36.0762 11.7953 36.4962 11.394C36.9162 10.9833 37.4248 10.6613 38.0222 10.428C38.6288 10.1947 39.3288 10.078 40.1222 10.078C41.0555 10.078 41.8488 10.1853 42.5022 10.4C43.1555 10.6147 43.6875 10.9227 44.0982 11.324C44.5182 11.716 44.8308 12.1827 45.0362 12.724C45.2415 13.2653 45.3675 13.858 45.4142 14.502C45.4328 14.7073 45.4422 14.9267 45.4422 15.16C45.4422 15.384 45.4375 15.5987 45.4282 15.804C45.4282 16 45.4235 16.1587 45.4142 16.28C45.3862 16.7373 45.2742 17.1247 45.0782 17.442C44.8915 17.7593 44.6442 17.9973 44.3362 18.156C44.0375 18.3147 43.7015 18.394 43.3282 18.394C43.0202 18.394 42.7542 18.352 42.5302 18.268C42.3062 18.1747 42.1242 18.072 41.9842 17.96C41.8442 17.848 41.7368 17.75 41.6622 17.666C41.5968 17.778 41.4988 17.904 41.3682 18.044C41.2375 18.184 41.0508 18.3007 40.8082 18.394C40.5748 18.4873 40.2575 18.534 39.8562 18.534C39.1655 18.534 38.6195 18.282 38.2182 17.778C37.8168 17.2647 37.6162 16.5647 37.6162 15.678C37.6162 14.7913 37.8122 14.0913 38.2042 13.578C38.5962 13.0647 39.1375 12.808 39.8282 12.808C40.2015 12.808 40.4955 12.8733 40.7102 13.004C40.9248 13.1253 41.1022 13.2747 41.2422 13.452V13.27C41.2422 13.1673 41.2748 13.0833 41.3402 13.018C41.4055 12.9527 41.4848 12.92 41.5782 12.92H42.2222C42.3155 12.92 42.3948 12.9527 42.4602 13.018C42.5255 13.0833 42.5582 13.1673 42.5582 13.27V16.14C42.5582 16.4667 42.6282 16.714 42.7682 16.882C42.9082 17.05 43.0948 17.134 43.3282 17.134C43.5428 17.134 43.7062 17.078 43.8182 16.966C43.9302 16.854 44.0048 16.7233 44.0422 16.574C44.0888 16.4153 44.1122 16.2707 44.1122 16.14C44.1122 15.9533 44.1168 15.72 44.1262 15.44C44.1355 15.16 44.1262 14.8707 44.0982 14.572C44.0608 13.8533 43.9068 13.256 43.6362 12.78C43.3655 12.2947 42.9455 11.9353 42.3762 11.702C41.8162 11.4687 41.0648 11.352 40.1222 11.352C39.3382 11.352 38.6802 11.4873 38.1482 11.758C37.6255 12.0193 37.2195 12.3927 36.9302 12.878C36.6408 13.354 36.4588 13.9187 36.3842 14.572C36.3655 14.7307 36.3515 14.9547 36.3422 15.244C36.3422 15.5333 36.3422 15.8273 36.3422 16.126C36.3515 16.4153 36.3655 16.6487 36.3842 16.826C36.4962 17.834 36.8648 18.618 37.4902 19.178C38.1248 19.738 39.0488 20.018 40.2622 20.018C40.8688 20.018 41.3495 19.976 41.7042 19.892C42.0682 19.8173 42.3528 19.7147 42.5582 19.584C42.7728 19.4627 42.9595 19.346 43.1182 19.234C43.1928 19.178 43.2582 19.1313 43.3142 19.094C43.3702 19.0567 43.4448 19.038 43.5382 19.038H44.4202C44.5135 19.038 44.5928 19.0707 44.6582 19.136C44.7235 19.2013 44.7562 19.2853 44.7562 19.388C44.7562 19.4253 44.7468 19.4627 44.7282 19.5C44.7095 19.528 44.6908 19.556 44.6722 19.584C44.4108 19.8827 44.0842 20.158 43.6922 20.41C43.3002 20.6713 42.8242 20.8813 42.2642 21.04C41.7042 21.1987 41.0368 21.278 40.2622 21.278ZM40.0802 17.274C40.4815 17.274 40.7755 17.1387 40.9622 16.868C41.1488 16.5973 41.2422 16.2007 41.2422 15.678C41.2422 15.1553 41.1488 14.7587 40.9622 14.488C40.7755 14.208 40.4815 14.068 40.0802 14.068C39.6882 14.068 39.3942 14.208 39.1982 14.488C39.0115 14.7587 38.9182 15.1553 38.9182 15.678C38.9182 15.9953 38.9602 16.2753 39.0442 16.518C39.1282 16.7607 39.2542 16.9473 39.4222 17.078C39.5995 17.2087 39.8188 17.274 40.0802 17.274ZM47.4837 19.5C47.381 19.5 47.297 19.4673 47.2317 19.402C47.1663 19.3367 47.1337 19.2527 47.1337 19.15V10.05C47.1337 9.94733 47.1663 9.86333 47.2317 9.798C47.297 9.73267 47.381 9.7 47.4837 9.7H53.7277C53.8303 9.7 53.9143 9.73267 53.9797 9.798C54.045 9.86333 54.0777 9.94733 54.0777 10.05V11.24C54.0777 11.3427 54.045 11.4267 53.9797 11.492C53.9143 11.5573 53.8303 11.59 53.7277 11.59H49.3177V13.956H53.4477C53.5503 13.956 53.6343 13.9887 53.6997 14.054C53.765 14.1193 53.7977 14.2033 53.7977 14.306V15.496C53.7977 15.5893 53.765 15.6687 53.6997 15.734C53.6343 15.7993 53.5503 15.832 53.4477 15.832H49.3177V19.15C49.3177 19.2527 49.285 19.3367 49.2197 19.402C49.1543 19.4673 49.0703 19.5 48.9677 19.5H47.4837ZM56.0149 19.5C55.9122 19.5 55.8282 19.4673 55.7629 19.402C55.6976 19.3367 55.6649 19.2527 55.6649 19.15V10.05C55.6649 9.94733 55.6976 9.86333 55.7629 9.798C55.8282 9.73267 55.9122 9.7 56.0149 9.7H62.3569C62.4596 9.7 62.5436 9.73267 62.6089 9.798C62.6742 9.86333 62.7069 9.94733 62.7069 10.05V11.17C62.7069 11.2633 62.6742 11.3427 62.6089 11.408C62.5436 11.4733 62.4596 11.506 62.3569 11.506H57.8209V13.704H62.0489C62.1516 13.704 62.2356 13.7367 62.3009 13.802C62.3662 13.8673 62.3989 13.9513 62.3989 14.054V15.09C62.3989 15.1833 62.3662 15.2627 62.3009 15.328C62.2356 15.3933 62.1516 15.426 62.0489 15.426H57.8209V17.694H62.4689C62.5716 17.694 62.6556 17.7267 62.7209 17.792C62.7862 17.8573 62.8189 17.9413 62.8189 18.044V19.15C62.8189 19.2527 62.7862 19.3367 62.7209 19.402C62.6556 19.4673 62.5716 19.5 62.4689 19.5H56.0149ZM64.8333 19.5C64.7306 19.5 64.6466 19.4673 64.5813 19.402C64.5159 19.3367 64.4833 19.2527 64.4833 19.15V10.05C64.4833 9.94733 64.5159 9.86333 64.5813 9.798C64.6466 9.73267 64.7306 9.7 64.8333 9.7H71.1753C71.2779 9.7 71.3619 9.73267 71.4273 9.798C71.4926 9.86333 71.5253 9.94733 71.5253 10.05V11.17C71.5253 11.2633 71.4926 11.3427 71.4273 11.408C71.3619 11.4733 71.2779 11.506 71.1753 11.506H66.6393V13.704H70.8673C70.9699 13.704 71.0539 13.7367 71.1193 13.802C71.1846 13.8673 71.2173 13.9513 71.2173 14.054V15.09C71.2173 15.1833 71.1846 15.2627 71.1193 15.328C71.0539 15.3933 70.9699 15.426 70.8673 15.426H66.6393V17.694H71.2873C71.3899 17.694 71.4739 17.7267 71.5393 17.792C71.6046 17.8573 71.6373 17.9413 71.6373 18.044V19.15C71.6373 19.2527 71.6046 19.3367 71.5393 19.402C71.4739 19.4673 71.3899 19.5 71.2873 19.5H64.8333ZM73.6516 19.5C73.549 19.5 73.465 19.4673 73.3996 19.402C73.3343 19.3367 73.3016 19.2527 73.3016 19.15V10.05C73.3016 9.94733 73.3343 9.86333 73.3996 9.798C73.465 9.73267 73.549 9.7 73.6516 9.7H77.3616C78.5283 9.7 79.4476 9.97067 80.1196 10.512C80.7916 11.044 81.1276 11.814 81.1276 12.822C81.1276 13.5033 80.9643 14.0727 80.6376 14.53C80.311 14.9873 79.8723 15.328 79.3216 15.552L81.2956 19.052C81.3236 19.108 81.3376 19.1593 81.3376 19.206C81.3376 19.2807 81.3096 19.3507 81.2536 19.416C81.1976 19.472 81.1276 19.5 81.0436 19.5H79.4896C79.3216 19.5 79.1956 19.458 79.1116 19.374C79.0276 19.2807 78.967 19.1967 78.9296 19.122L77.2216 15.916H75.5276V19.15C75.5276 19.2527 75.495 19.3367 75.4296 19.402C75.3643 19.4673 75.2803 19.5 75.1776 19.5H73.6516ZM75.5276 14.138H77.3196C77.833 14.138 78.211 14.0213 78.4536 13.788C78.7056 13.5547 78.8316 13.228 78.8316 12.808C78.8316 12.388 78.7103 12.0567 78.4676 11.814C78.225 11.5713 77.8423 11.45 77.3196 11.45H75.5276V14.138ZM85.3581 19.5C85.2088 19.5 85.0875 19.4627 84.9941 19.388C84.9101 19.304 84.8495 19.206 84.8121 19.094L81.8721 10.12C81.8628 10.0733 81.8581 10.0313 81.8581 9.994C81.8581 9.91933 81.8861 9.854 81.9421 9.798C81.9981 9.73267 82.0681 9.7 82.1521 9.7H83.6221C83.7621 9.7 83.8695 9.742 83.9441 9.826C84.0281 9.90067 84.0795 9.97067 84.0981 10.036L86.2821 16.882L88.4521 10.036C88.4801 9.97067 88.5315 9.90067 88.6061 9.826C88.6808 9.742 88.7881 9.7 88.9281 9.7H90.3981C90.4821 9.7 90.5521 9.73267 90.6081 9.798C90.6641 9.854 90.6921 9.91933 90.6921 9.994C90.6921 10.0313 90.6875 10.0733 90.6781 10.12L87.7381 19.094C87.7101 19.206 87.6495 19.304 87.5561 19.388C87.4721 19.4627 87.3508 19.5 87.1921 19.5H85.3581ZM92.4368 19.5C92.3341 19.5 92.2501 19.4673 92.1848 19.402C92.1194 19.3367 92.0868 19.2527 92.0868 19.15V10.05C92.0868 9.94733 92.1194 9.86333 92.1848 9.798C92.2501 9.73267 92.3341 9.7 92.4368 9.7H98.7788C98.8814 9.7 98.9654 9.73267 99.0308 9.798C99.0961 9.86333 99.1288 9.94733 99.1288 10.05V11.17C99.1288 11.2633 99.0961 11.3427 99.0308 11.408C98.9654 11.4733 98.8814 11.506 98.7788 11.506H94.2428V13.704H98.4708C98.5734 13.704 98.6574 13.7367 98.7228 13.802C98.7881 13.8673 98.8208 13.9513 98.8208 14.054V15.09C98.8208 15.1833 98.7881 15.2627 98.7228 15.328C98.6574 15.3933 98.5734 15.426 98.4708 15.426H94.2428V17.694H98.8908C98.9934 17.694 99.0774 17.7267 99.1428 17.792C99.2081 17.8573 99.2408 17.9413 99.2408 18.044V19.15C99.2408 19.2527 99.2081 19.3367 99.1428 19.402C99.0774 19.4673 98.9934 19.5 98.8908 19.5H92.4368ZM101.255 19.5C101.152 19.5 101.068 19.4673 101.003 19.402C100.938 19.3367 100.905 19.2527 100.905 19.15V10.05C100.905 9.94733 100.938 9.86333 101.003 9.798C101.068 9.73267 101.152 9.7 101.255 9.7H104.965C106.132 9.7 107.051 9.97067 107.723 10.512C108.395 11.044 108.731 11.814 108.731 12.822C108.731 13.5033 108.568 14.0727 108.241 14.53C107.914 14.9873 107.476 15.328 106.925 15.552L108.899 19.052C108.927 19.108 108.941 19.1593 108.941 19.206C108.941 19.2807 108.913 19.3507 108.857 19.416C108.801 19.472 108.731 19.5 108.647 19.5H107.093C106.925 19.5 106.799 19.458 106.715 19.374C106.631 19.2807 106.57 19.1967 106.533 19.122L104.825 15.916H103.131V19.15C103.131 19.2527 103.098 19.3367 103.033 19.402C102.968 19.4673 102.884 19.5 102.781 19.5H101.255ZM103.131 14.138H104.923C105.436 14.138 105.814 14.0213 106.057 13.788C106.309 13.5547 106.435 13.228 106.435 12.808C106.435 12.388 106.314 12.0567 106.071 11.814C105.828 11.5713 105.446 11.45 104.923 11.45H103.131V14.138ZM110.798 19.5C110.695 19.5 110.611 19.4673 110.546 19.402C110.481 19.3367 110.448 19.2527 110.448 19.15V10.05C110.448 9.94733 110.481 9.86333 110.546 9.798C110.611 9.73267 110.695 9.7 110.798 9.7H112.282C112.385 9.7 112.469 9.73267 112.534 9.798C112.599 9.86333 112.632 9.94733 112.632 10.05V13.242L115.516 9.966C115.553 9.91 115.614 9.854 115.698 9.798C115.791 9.73267 115.913 9.7 116.062 9.7H117.756C117.84 9.7 117.91 9.73267 117.966 9.798C118.022 9.854 118.05 9.91933 118.05 9.994C118.05 10.0593 118.031 10.1153 117.994 10.162L114.396 14.39L118.26 19.038C118.297 19.0753 118.316 19.1313 118.316 19.206C118.316 19.2807 118.288 19.3507 118.232 19.416C118.176 19.472 118.106 19.5 118.022 19.5H116.272C116.104 19.5 115.978 19.4627 115.894 19.388C115.81 19.3133 115.754 19.262 115.726 19.234L112.632 15.65V19.15C112.632 19.2527 112.599 19.3367 112.534 19.402C112.469 19.4673 112.385 19.5 112.282 19.5H110.798ZM119.863 19.5C119.76 19.5 119.676 19.4673 119.611 19.402C119.545 19.3367 119.513 19.2527 119.513 19.15V10.05C119.513 9.94733 119.545 9.86333 119.611 9.798C119.676 9.73267 119.76 9.7 119.863 9.7H121.445C121.547 9.7 121.631 9.73267 121.697 9.798C121.762 9.86333 121.795 9.94733 121.795 10.05V19.15C121.795 19.2527 121.762 19.3367 121.697 19.402C121.631 19.4673 121.547 19.5 121.445 19.5H119.863ZM123.86 20.396C123.767 20.396 123.688 20.3633 123.622 20.298C123.557 20.2327 123.524 20.1487 123.524 20.046V18.94C123.524 18.8373 123.557 18.7533 123.622 18.688C123.688 18.6227 123.767 18.59 123.86 18.59H132.134C132.228 18.59 132.307 18.6227 132.372 18.688C132.438 18.7533 132.47 18.8373 132.47 18.94V20.046C132.47 20.1487 132.438 20.2327 132.372 20.298C132.307 20.3633 132.228 20.396 132.134 20.396H123.86ZM134.56 19.5C134.457 19.5 134.373 19.4673 134.308 19.402C134.242 19.3367 134.21 19.2527 134.21 19.15V10.05C134.21 9.94733 134.242 9.86333 134.308 9.798C134.373 9.73267 134.457 9.7 134.56 9.7H138.718C139.492 9.7 140.127 9.812 140.622 10.036C141.116 10.26 141.48 10.5773 141.714 10.988C141.956 11.3987 142.078 11.8793 142.078 12.43C142.078 12.7753 142.012 13.0787 141.882 13.34C141.76 13.6013 141.606 13.816 141.42 13.984C141.242 14.152 141.07 14.278 140.902 14.362C141.266 14.53 141.583 14.81 141.854 15.202C142.134 15.5847 142.274 16.042 142.274 16.574C142.274 17.162 142.143 17.6753 141.882 18.114C141.62 18.5527 141.233 18.8933 140.72 19.136C140.206 19.3787 139.581 19.5 138.844 19.5H134.56ZM136.436 17.862H138.578C139.035 17.862 139.38 17.736 139.614 17.484C139.847 17.2227 139.964 16.9147 139.964 16.56C139.964 16.196 139.842 15.8927 139.6 15.65C139.366 15.398 139.026 15.272 138.578 15.272H136.436V17.862ZM136.436 13.662H138.452C138.89 13.662 139.217 13.5547 139.432 13.34C139.656 13.116 139.768 12.8313 139.768 12.486C139.768 12.1407 139.656 11.8653 139.432 11.66C139.217 11.4453 138.89 11.338 138.452 11.338H136.436V13.662ZM146.528 19.5C146.425 19.5 146.341 19.4673 146.276 19.402C146.21 19.3367 146.178 19.2527 146.178 19.15V16.07L142.902 10.148C142.892 10.12 142.883 10.0967 142.874 10.078C142.864 10.05 142.86 10.022 142.86 9.994C142.86 9.91933 142.888 9.854 142.944 9.798C143.009 9.73267 143.079 9.7 143.154 9.7H144.638C144.768 9.7 144.871 9.73267 144.946 9.798C145.02 9.86333 145.072 9.924 145.1 9.98L147.298 13.83L149.496 9.98C149.524 9.924 149.575 9.86333 149.65 9.798C149.724 9.73267 149.827 9.7 149.958 9.7H151.442C151.516 9.7 151.582 9.73267 151.638 9.798C151.703 9.854 151.736 9.91933 151.736 9.994C151.736 10.022 151.731 10.05 151.722 10.078C151.712 10.0967 151.703 10.12 151.694 10.148L148.418 16.07V19.15C148.418 19.2527 148.385 19.3367 148.32 19.402C148.254 19.4673 148.17 19.5 148.068 19.5H146.528Z" fill="#E81212"/>
<g clip-path="url(#clip0_22_591)">
<rect x="162" width="30" height="30" rx="15" fill="white"/>
<path d="M180.334 12.3392C180.162 12.4515 180.077 12.6411 180.109 12.8483C180.133 13.0098 180.165 13.0449 181.173 14.0562L182.212 15.1025L176.275 15.1095C170.337 15.1201 170.334 15.1201 170.239 15.1938C170.063 15.3237 170 15.4396 170 15.6292C170 15.8188 170.063 15.9347 170.239 16.0646C170.334 16.1383 170.337 16.1383 176.275 16.1489L182.212 16.1559L181.173 17.2022C180.165 18.2135 180.133 18.2486 180.109 18.4101C180.06 18.7261 180.291 19 180.607 19C180.692 19 180.797 18.9824 180.839 18.9614C180.916 18.9192 183.824 16.0576 183.915 15.9347C183.992 15.8258 184.024 15.6257 183.985 15.4782C183.957 15.3694 183.694 15.092 182.44 13.8455C181.608 13.0203 180.892 12.3286 180.853 12.304C180.723 12.2303 180.467 12.2479 180.334 12.3392Z" fill="#E81212"/>
</g>
<defs>
<clipPath id="clip0_22_591">
<rect width="30" height="30" fill="white" transform="translate(162)"/>
</clipPath>
</defs>
</svg>
