<svg width="684" height="41" viewBox="0 0 684 41" fill="none" xmlns="http://www.w3.org/2000/svg">
<rect width="142" height="41" fill="url(#paint0_linear_14_83)"/>
<path d="M30.6104 9.66509C29.8926 9.93853 29.4385 10.8712 29.6387 11.6524C29.7803 12.2139 30.083 12.5655 30.6445 12.8243C31.2793 13.1172 31.5869 13.0733 31.6504 12.6876C31.6895 12.4434 31.5479 12.2823 31.1426 12.1309C30.5762 11.9112 30.3223 11.5059 30.4492 11.0225C30.6445 10.295 31.5723 10.168 32.1338 10.793C32.3682 11.0518 32.5 11.3399 32.5 11.6133C32.5 11.7305 32.3877 12.4092 32.251 13.1124L32.002 14.4014L31.8213 14.294C30.0732 13.2588 28.6621 12.9952 28.0176 13.586C27.8613 13.7276 27.7637 13.9229 27.666 14.2989C27.6221 14.4747 26.2793 18.0098 24.6924 22.1602C22.7832 27.1358 21.792 29.7872 21.7725 29.9532C21.7139 30.5147 22.0654 31.1104 22.5928 31.3399C22.8027 31.4278 22.915 31.4424 23.2178 31.4278C23.5693 31.4083 23.9844 31.252 31.1816 28.4981C35.3564 26.8965 38.8916 25.5635 39.0283 25.5294C40.1465 25.2706 40.2539 24.0889 39.3359 22.17C39.1748 21.8428 38.9258 21.3838 38.7793 21.1592L38.5107 20.7491L38.7402 20.7051C38.8672 20.6758 39.4629 20.5635 40.0586 20.4463C41.2793 20.212 41.4063 20.2169 41.8018 20.4903C42.5342 20.9981 42.5977 21.9063 41.9238 22.2432C41.6699 22.3751 41.4551 22.3848 41.2012 22.2823C40.9375 22.17 40.8203 22.0381 40.6738 21.6768C40.4932 21.2471 40.3906 21.1348 40.166 21.1348C39.9463 21.1348 39.79 21.2422 39.751 21.4229C39.6875 21.711 40.1221 22.5899 40.4492 22.8292C40.8203 23.1026 41.001 23.1612 41.4844 23.1612C41.8848 23.1612 41.9873 23.1417 42.2266 23.0294C43.1836 22.585 43.4961 21.5938 42.9981 20.5977C42.6465 19.8995 41.9043 19.4258 41.1572 19.4258C40.9912 19.4258 38.335 19.9092 38.0615 19.9922C38.0127 20.0069 37.876 19.8751 37.6465 19.587C36.4551 18.0733 34.5801 16.2471 33.1494 15.2022C32.8906 15.0118 32.7539 14.8848 32.7686 14.836C32.7783 14.7969 32.9102 14.1133 33.0615 13.3223C33.291 12.1407 33.335 11.8135 33.3203 11.4913C33.2813 10.6465 32.7344 9.95318 31.875 9.66509C31.4795 9.53326 30.957 9.53326 30.6104 9.66509ZM29.7705 14.2501C30.4199 14.4649 31.8164 15.2022 31.8164 15.3292C31.8164 15.3536 31.7383 15.7833 31.6406 16.2764C31.4893 17.0381 31.4697 17.1993 31.5186 17.3213C31.626 17.5753 31.9824 17.6534 32.1777 17.4581C32.2656 17.3702 32.3145 17.1944 32.4268 16.6036C32.5049 16.1983 32.583 15.8614 32.6025 15.8614C32.6758 15.8614 33.7305 16.7305 34.4189 17.3604C35.1318 18.0147 36.0156 18.9376 36.6699 19.7188L37.0557 20.1827L36.2402 20.3389C35.7178 20.4366 35.3857 20.5245 35.3272 20.5782C35.1953 20.6954 35.2002 21.0518 35.332 21.1837C35.4639 21.3155 35.6055 21.3106 36.626 21.1104C37.1094 21.0176 37.5293 20.9395 37.5586 20.9395C37.6465 20.9395 38.2959 21.9649 38.5889 22.5557C39.0234 23.4395 39.2188 24.1573 39.0967 24.4649C38.916 24.9336 38.1836 24.8458 36.8701 24.1915C34.1162 22.8243 30.332 19.0254 28.9844 16.2764C28.6084 15.5049 28.4814 15.1338 28.4766 14.7335C28.4717 14.4698 28.4912 14.3868 28.5693 14.2989C28.7842 14.0596 29.1553 14.0401 29.7705 14.2501ZM28.9014 17.8243C29.126 18.1807 29.5166 18.8155 29.7656 19.2305C31.3477 21.8526 32.915 24.045 34.5947 25.9786L34.7949 26.2032L34.2236 26.4278L33.6475 26.6573L33.3643 26.3497C31.6797 24.5381 29.5801 21.5547 27.6709 18.2588L27.3193 17.6534L27.6221 16.8379L27.9297 16.0225L28.2129 16.6036C28.3643 16.921 28.6768 17.4678 28.9014 17.8243ZM27.373 19.4258C28.8721 21.9893 30.7666 24.6797 32.3096 26.4376L32.7881 26.9795L32.2266 27.1895C31.7432 27.3702 31.6553 27.3897 31.6016 27.3311C31.3525 27.0674 30.4248 25.9151 29.9414 25.2706C28.9893 23.9961 27.29 21.418 26.6016 20.2022L26.4453 19.9239L26.6748 19.3135C26.8506 18.8545 26.9238 18.7129 26.9629 18.7569C26.9922 18.7911 27.1777 19.0889 27.373 19.4258ZM26.4795 21.6329C27.7197 23.669 29.4482 26.1251 30.5078 27.3555C30.6689 27.5411 30.7813 27.7071 30.7568 27.7315C30.7373 27.751 30.4932 27.8536 30.2148 27.961L29.7168 28.1563L29.209 27.5118C28.0664 26.0665 26.4063 23.6446 25.7031 22.4044L25.5762 22.1846L25.8057 21.5889C25.9277 21.2569 26.0449 20.9883 26.0596 20.9883C26.0742 20.9883 26.2647 21.2813 26.4795 21.6329ZM33.9893 23.3126C34.7363 23.9034 35.8887 24.6553 36.543 24.9727C36.8701 25.129 37.1338 25.2706 37.1338 25.2852C37.1387 25.2999 36.8018 25.4415 36.3965 25.5977L35.6494 25.8809L35.4395 25.6417C34.5361 24.6309 33.8135 23.7325 33.1348 22.795L32.7246 22.2335L33.1152 22.5801C33.3252 22.7706 33.7207 23.0977 33.9893 23.3126ZM25.498 23.6836C26.377 25.0801 27.5537 26.7696 28.4082 27.8633C28.6426 28.1661 28.8379 28.4297 28.8379 28.4542C28.8379 28.4737 28.6035 28.5811 28.3154 28.6885L27.793 28.8838L27.6172 28.6592C26.7578 27.5704 24.7363 24.6114 24.7363 24.4405C24.7363 24.4063 24.8193 24.1573 24.9219 23.8887C25.0244 23.6251 25.127 23.3663 25.1416 23.3174C25.1611 23.2735 25.1807 23.2344 25.1904 23.2344C25.2051 23.2344 25.3418 23.4395 25.498 23.6836ZM24.541 25.7588C24.8047 26.1934 25.8643 27.7266 26.4063 28.4542C26.6748 28.8106 26.8994 29.128 26.9141 29.1622C26.9336 29.211 26.0645 29.5821 25.9229 29.5821C25.8545 29.5821 25.2539 28.7618 24.4238 27.5411L23.8525 26.7012L24.082 26.0909C24.209 25.754 24.3262 25.4805 24.3457 25.4805C24.3604 25.4805 24.4482 25.6075 24.541 25.7588ZM23.8086 28.1417C23.9551 28.3565 24.2871 28.835 24.5508 29.2012C24.8145 29.5723 25.0293 29.8897 25.0293 29.9092C25.0293 29.9727 23.2715 30.6221 23.1201 30.6172C22.8662 30.6124 22.5879 30.3292 22.5879 30.085C22.5879 30.0069 22.7051 29.6797 23.3057 28.127C23.3984 27.878 23.4961 27.6876 23.5156 27.712C23.5352 27.7315 23.667 27.9268 23.8086 28.1417Z" fill="white"/>
<path d="M33.8379 17.6631C33.6719 17.7363 33.5254 17.9609 33.5254 18.1367C33.5254 18.249 33.5742 18.3516 33.6768 18.4736C33.8086 18.6201 33.8574 18.6445 34.0479 18.6445C34.502 18.6445 34.7217 18.1514 34.4189 17.8145C34.2725 17.6533 34.0186 17.5898 33.8379 17.6631Z" fill="white"/>
<path d="M34.79 10.583C34.6094 10.7686 34.6094 10.8613 34.8145 11.2617C35.0537 11.7403 35.1367 12.0918 35.1709 12.7852C35.2002 13.4151 35.1416 14.1231 35.0098 14.7725C34.9316 15.1436 34.9561 15.2754 35.1318 15.4072C35.2637 15.5098 35.5469 15.4854 35.6592 15.3584C35.8399 15.168 36.0156 14.0254 36.0156 13.0781C36.0156 11.335 35.3662 10.0117 34.79 10.583Z" fill="white"/>
<path d="M37.3779 11.2178C37.2656 11.3302 37.2363 11.4034 37.2363 11.5645C37.2363 11.8184 37.2998 11.9356 37.4805 12.0284C37.9346 12.2628 38.418 11.8184 38.1934 11.3741C38.0273 11.0616 37.6172 10.9786 37.3779 11.2178Z" fill="white"/>
<path d="M38.3594 13.8057C37.8857 13.9619 37.5049 14.3232 37.3291 14.7822C37.0752 15.4609 37.417 16.2617 38.1055 16.6035C38.2861 16.6914 38.4131 16.7158 38.7256 16.7158C39.209 16.7158 39.502 16.5791 39.8389 16.2031C40.127 15.8857 40.2344 15.5684 40.2051 15.1338C40.1514 14.3721 39.5801 13.8105 38.8281 13.7812C38.6377 13.7715 38.4277 13.7812 38.3594 13.8057ZM39.0332 14.6895C39.4043 14.9141 39.4873 15.3779 39.2139 15.666C38.9258 15.9687 38.5742 15.9785 38.2861 15.6904C37.9736 15.373 38.0225 14.958 38.4033 14.7041C38.6084 14.5674 38.8232 14.5625 39.0332 14.6895Z" fill="white"/>
<path d="M41.6504 17.668C41.4941 17.7314 41.3379 17.9561 41.3379 18.1172C41.3379 18.4297 41.5527 18.6396 41.8652 18.6445C42.4121 18.6445 42.5586 17.9463 42.0703 17.6924C41.9141 17.6094 41.8018 17.6045 41.6504 17.668Z" fill="white"/>
<path d="M56.624 25C56.5307 25 56.456 24.972 56.4 24.916C56.344 24.86 56.316 24.7853 56.316 24.692V15.522C56.316 15.4193 56.344 15.34 56.4 15.284C56.456 15.228 56.5307 15.2 56.624 15.2H56.876C56.9787 15.2 57.058 15.228 57.114 15.284C57.17 15.34 57.198 15.4193 57.198 15.522V19.61H62.602V15.522C62.602 15.4193 62.63 15.34 62.686 15.284C62.742 15.228 62.8167 15.2 62.91 15.2H63.162C63.2647 15.2 63.344 15.228 63.4 15.284C63.456 15.34 63.484 15.4193 63.484 15.522V24.692C63.484 24.7853 63.456 24.86 63.4 24.916C63.344 24.972 63.2647 25 63.162 25H62.91C62.8167 25 62.742 24.972 62.686 24.916C62.63 24.86 62.602 24.7853 62.602 24.692V20.45H57.198V24.692C57.198 24.7853 57.17 24.86 57.114 24.916C57.058 24.972 56.9787 25 56.876 25H56.624ZM69.4367 25.14C68.6621 25.14 68.0041 25.0047 67.4627 24.734C66.9214 24.454 66.5061 24.0293 66.2167 23.46C65.9274 22.8813 65.7687 22.1533 65.7407 21.276C65.7314 20.856 65.7267 20.464 65.7267 20.1C65.7267 19.736 65.7314 19.344 65.7407 18.924C65.7687 18.056 65.9367 17.3373 66.2447 16.768C66.5527 16.1893 66.9774 15.76 67.5187 15.48C68.0694 15.2 68.7087 15.06 69.4367 15.06C70.1647 15.06 70.7994 15.2 71.3407 15.48C71.8914 15.76 72.3207 16.1893 72.6287 16.768C72.9461 17.3373 73.1141 18.056 73.1327 18.924C73.1514 19.344 73.1607 19.736 73.1607 20.1C73.1607 20.464 73.1514 20.856 73.1327 21.276C73.1141 22.1533 72.9554 22.8813 72.6567 23.46C72.3674 24.0293 71.9521 24.454 71.4107 24.734C70.8694 25.0047 70.2114 25.14 69.4367 25.14ZM69.4367 24.3C70.2394 24.3 70.8974 24.0573 71.4107 23.572C71.9334 23.0867 72.2134 22.298 72.2507 21.206C72.2694 20.786 72.2787 20.4173 72.2787 20.1C72.2787 19.7827 72.2694 19.414 72.2507 18.994C72.2321 18.266 72.0967 17.6733 71.8447 17.216C71.6021 16.7587 71.2707 16.4273 70.8507 16.222C70.4401 16.0073 69.9687 15.9 69.4367 15.9C68.9141 15.9 68.4427 16.0073 68.0227 16.222C67.6121 16.4273 67.2807 16.7587 67.0287 17.216C66.7861 17.6733 66.6507 18.266 66.6227 18.994C66.6134 19.414 66.6087 19.7827 66.6087 20.1C66.6087 20.4173 66.6134 20.786 66.6227 21.206C66.6601 22.298 66.9401 23.0867 67.4627 23.572C67.9854 24.0573 68.6434 24.3 69.4367 24.3ZM75.6963 25C75.6029 25 75.5283 24.972 75.4723 24.916C75.4163 24.86 75.3883 24.7853 75.3883 24.692V15.522C75.3883 15.4193 75.4163 15.34 75.4723 15.284C75.5283 15.228 75.6029 15.2 75.6963 15.2H79.3503C80.0036 15.2 80.5356 15.3167 80.9463 15.55C81.3663 15.7833 81.6743 16.0913 81.8703 16.474C82.0663 16.8473 82.1643 17.258 82.1643 17.706C82.1643 18.1073 82.0989 18.4527 81.9683 18.742C81.8469 19.022 81.6883 19.2507 81.4923 19.428C81.3056 19.6053 81.1189 19.7407 80.9323 19.834C81.3056 20.0207 81.6369 20.3193 81.9263 20.73C82.2156 21.1407 82.3603 21.64 82.3603 22.228C82.3603 22.6947 82.2483 23.1427 82.0243 23.572C81.8096 23.992 81.4829 24.3373 81.0443 24.608C80.6149 24.8693 80.0829 25 79.4483 25H75.6963ZM76.2703 24.16H79.3083C79.9989 24.16 80.5309 23.978 80.9043 23.614C81.2869 23.25 81.4783 22.788 81.4783 22.228C81.4783 21.6587 81.2869 21.1967 80.9043 20.842C80.5309 20.478 79.9989 20.296 79.3083 20.296H76.2703V24.16ZM76.2703 19.456H79.1683C79.8589 19.456 80.3816 19.302 80.7363 18.994C81.1003 18.686 81.2823 18.2567 81.2823 17.706C81.2823 17.1553 81.1003 16.74 80.7363 16.46C80.3816 16.18 79.8589 16.04 79.1683 16.04H76.2703V19.456ZM84.8428 25C84.7494 25 84.6748 24.972 84.6188 24.916C84.5628 24.8507 84.5348 24.7713 84.5348 24.678V15.522C84.5348 15.4193 84.5628 15.34 84.6188 15.284C84.6841 15.228 84.7634 15.2 84.8568 15.2H85.1088C85.2021 15.2 85.2768 15.228 85.3328 15.284C85.3888 15.34 85.4168 15.4193 85.4168 15.522V23.46L91.1708 15.368C91.1894 15.3493 91.2174 15.3167 91.2548 15.27C91.3014 15.2233 91.3714 15.2 91.4648 15.2H91.7588C91.8521 15.2 91.9268 15.228 91.9828 15.284C92.0388 15.34 92.0668 15.4193 92.0668 15.522V24.692C92.0668 24.7853 92.0388 24.86 91.9828 24.916C91.9268 24.972 91.8521 25 91.7588 25H91.5068C91.4134 25 91.3341 24.972 91.2688 24.916C91.2128 24.86 91.1848 24.7853 91.1848 24.692V16.768L85.4448 24.832C85.4354 24.8507 85.4074 24.8833 85.3608 24.93C85.3141 24.9767 85.2441 25 85.1508 25H84.8428ZM95.001 25C94.9076 25 94.833 24.972 94.777 24.916C94.721 24.86 94.693 24.7853 94.693 24.692V15.522C94.693 15.4193 94.721 15.34 94.777 15.284C94.833 15.228 94.9076 15.2 95.001 15.2H95.253C95.3556 15.2 95.435 15.228 95.491 15.284C95.547 15.34 95.575 15.4193 95.575 15.522V19.61H100.979V15.522C100.979 15.4193 101.007 15.34 101.063 15.284C101.119 15.228 101.194 15.2 101.287 15.2H101.539C101.642 15.2 101.721 15.228 101.777 15.284C101.833 15.34 101.861 15.4193 101.861 15.522V24.692C101.861 24.7853 101.833 24.86 101.777 24.916C101.721 24.972 101.642 25 101.539 25H101.287C101.194 25 101.119 24.972 101.063 24.916C101.007 24.86 100.979 24.7853 100.979 24.692V20.45H95.575V24.692C95.575 24.7853 95.547 24.86 95.491 24.916C95.435 24.972 95.3556 25 95.253 25H95.001ZM104.804 25C104.71 25 104.636 24.972 104.58 24.916C104.524 24.86 104.496 24.7853 104.496 24.692V15.522C104.496 15.4193 104.524 15.34 104.58 15.284C104.636 15.228 104.71 15.2 104.804 15.2H105.056C105.158 15.2 105.238 15.228 105.294 15.284C105.35 15.34 105.378 15.4193 105.378 15.522V19.61H107.282L109.942 15.41C109.988 15.3353 110.049 15.284 110.124 15.256C110.198 15.2187 110.292 15.2 110.404 15.2H110.628C110.73 15.2 110.8 15.228 110.838 15.284C110.884 15.34 110.908 15.4053 110.908 15.48C110.908 15.5267 110.884 15.5873 110.838 15.662L108.108 19.96L111.118 24.51C111.136 24.538 111.146 24.5893 111.146 24.664C111.146 24.7573 111.113 24.8367 111.048 24.902C110.992 24.9673 110.917 25 110.824 25H110.586C110.502 25 110.436 24.986 110.39 24.958C110.343 24.9207 110.301 24.874 110.264 24.818L107.324 20.45H105.378V24.692C105.378 24.7853 105.35 24.86 105.294 24.916C105.238 24.972 105.158 25 105.056 25H104.804ZM113.403 25C113.31 25 113.235 24.972 113.179 24.916C113.123 24.8507 113.095 24.7713 113.095 24.678V15.522C113.095 15.4193 113.123 15.34 113.179 15.284C113.245 15.228 113.324 15.2 113.417 15.2H113.669C113.763 15.2 113.837 15.228 113.893 15.284C113.949 15.34 113.977 15.4193 113.977 15.522V23.46L119.731 15.368C119.75 15.3493 119.778 15.3167 119.815 15.27C119.862 15.2233 119.932 15.2 120.025 15.2H120.319C120.413 15.2 120.487 15.228 120.543 15.284C120.599 15.34 120.627 15.4193 120.627 15.522V24.692C120.627 24.7853 120.599 24.86 120.543 24.916C120.487 24.972 120.413 25 120.319 25H120.067C119.974 25 119.895 24.972 119.829 24.916C119.773 24.86 119.745 24.7853 119.745 24.692V16.768L114.005 24.832C113.996 24.8507 113.968 24.8833 113.921 24.93C113.875 24.9767 113.805 25 113.711 25H113.403Z" fill="white"/>
<rect width="165" height="41" transform="translate(152)" fill="white"/>
<path d="M184.246 13.4297C184.202 13.4639 183.499 14.5869 182.688 15.9297C181.58 17.7559 181.175 18.3857 181.063 18.4541C180.965 18.5127 180.818 18.5469 180.657 18.5469C180.286 18.5469 180.159 18.4102 179.52 17.3164C178.851 16.1738 178.777 16.0762 178.611 16.042C178.318 15.9883 178.235 16.0713 177.732 16.9014C176.966 18.166 176.844 18.3467 176.673 18.4492C176.507 18.5518 176.229 18.5762 176.043 18.5029C175.98 18.4785 175.516 18.0586 175.013 17.5703C174.109 16.6963 174.09 16.6816 173.919 16.7061C173.719 16.7402 173.582 16.8477 173.543 17.0088C173.523 17.0869 173.904 18.2734 174.739 20.7051C175.477 22.873 175.98 24.4209 176.014 24.6357C176.067 24.9824 176.043 25.3145 175.911 25.9199C175.75 26.6621 175.97 27.209 176.565 27.5215L176.81 27.6533H184.529H192.244L192.532 27.5068C192.864 27.3359 193.108 27.0479 193.196 26.7354C193.265 26.4814 193.226 26.0176 193.113 25.7246C193.045 25.5586 193.025 25.3584 193.025 24.8945V24.2842L194.236 20.7686C194.9 18.835 195.447 17.1797 195.447 17.0869C195.447 16.8818 195.32 16.7451 195.086 16.7061C194.91 16.6816 194.896 16.6914 194.036 17.5215C193.558 17.9902 193.104 18.4102 193.021 18.459C192.83 18.5762 192.522 18.5713 192.327 18.4492C192.156 18.3467 192.034 18.166 191.268 16.9014C190.892 16.2812 190.76 16.1006 190.652 16.0615C190.506 16.0127 190.33 16.0371 190.228 16.1152C190.193 16.1396 189.891 16.6279 189.554 17.1992C189.217 17.7705 188.875 18.2979 188.802 18.3711C188.543 18.6201 188.113 18.625 187.85 18.3857C187.781 18.3271 187.078 17.1992 186.282 15.8857C185.486 14.5674 184.803 13.4639 184.759 13.4297C184.715 13.4004 184.598 13.3711 184.5 13.3711C184.402 13.3711 184.29 13.4004 184.246 13.4297ZM185.789 16.6963C186.487 17.8486 187.132 18.8691 187.225 18.9619C187.527 19.2646 187.776 19.3525 188.333 19.3525C188.768 19.3525 188.851 19.3379 189.065 19.2207C189.412 19.04 189.515 18.9131 190.037 18.0391L190.496 17.2676L190.613 17.4531C190.682 17.5605 190.887 17.8975 191.072 18.2051C191.648 19.1621 191.922 19.3525 192.703 19.3525C193.24 19.3525 193.436 19.2744 193.836 18.8984L194.07 18.6787L193.65 19.8945C192.928 21.9844 192.508 23.2393 192.337 23.8203L192.176 24.3818L184.505 24.3965L176.834 24.4062L176.805 24.2744C176.771 24.1035 176.131 22.1748 175.452 20.1924L174.935 18.6836L175.169 18.9033C175.564 19.2744 175.76 19.3525 176.297 19.3525C177.078 19.3525 177.352 19.1621 177.928 18.2051C178.113 17.8975 178.318 17.5605 178.387 17.4531L178.504 17.2676L178.963 18.0391C179.485 18.9131 179.588 19.04 179.935 19.2207C180.149 19.3379 180.232 19.3525 180.667 19.3525C181.224 19.3525 181.473 19.2646 181.775 18.9619C181.868 18.8691 182.513 17.8486 183.211 16.6914C183.904 15.5391 184.485 14.5967 184.5 14.5967C184.515 14.5967 185.096 15.5391 185.789 16.6963ZM192.19 25.417C192.21 25.5195 192.264 25.7637 192.317 25.959C192.439 26.4229 192.435 26.4766 192.269 26.6621L192.127 26.8232H184.549H176.971L176.829 26.6621C176.644 26.457 176.648 26.3496 176.863 25.3438L176.883 25.2363H184.524H192.161L192.19 25.417Z" fill="#443E3E"/>
<path d="M184.368 18.2538C184.236 18.3076 184.148 18.4394 183.807 19.1083C183.67 19.3769 183.553 19.6015 183.548 19.6113C183.538 19.621 183.221 19.6699 182.845 19.7236C182.117 19.8212 181.995 19.8554 181.912 20.0117C181.79 20.2412 181.844 20.3486 182.396 20.9101L182.928 21.4521L182.815 22.038C182.664 22.8046 182.659 22.9902 182.806 23.1269C182.986 23.2978 183.177 23.2636 183.855 22.9218L184.476 22.6093L185.086 22.9462C185.721 23.2929 185.867 23.3369 186.053 23.205C186.263 23.0585 186.268 22.9853 186.15 22.2285L186.043 21.5156L186.565 21.0078C186.849 20.7294 187.098 20.4462 187.117 20.3779C187.161 20.2021 187.054 19.9824 186.902 19.9189C186.795 19.8749 185.647 19.6699 185.516 19.6699C185.496 19.6699 185.34 19.3769 185.169 19.0204C184.998 18.6689 184.827 18.3515 184.788 18.3173C184.686 18.2343 184.49 18.205 184.368 18.2538ZM184.954 20.373C185.013 20.412 185.159 20.456 185.281 20.4755C185.403 20.4902 185.564 20.5195 185.638 20.5292L185.774 20.5585L185.481 20.8662C185.154 21.2079 185.135 21.2665 185.232 21.7695C185.262 21.9111 185.272 22.038 185.262 22.0478C185.252 22.0576 185.096 21.9892 184.915 21.8964C184.734 21.7988 184.534 21.7206 184.471 21.7206C184.402 21.7206 184.197 21.7988 184.002 21.8964L183.655 22.0722L183.689 21.9306C183.704 21.8574 183.733 21.6425 183.748 21.4619L183.782 21.1298L183.475 20.8173L183.172 20.5097L183.48 20.4755C184.036 20.4169 184.09 20.3876 184.314 19.9726L184.52 19.6015L184.681 19.9531C184.769 20.1435 184.891 20.3339 184.954 20.373Z" fill="#443E3E"/>
<path d="M207.7 25C207.625 25 207.56 24.972 207.504 24.916C207.448 24.86 207.42 24.7947 207.42 24.72C207.42 24.6827 207.425 24.65 207.434 24.622C207.453 24.5847 207.467 24.5567 207.476 24.538L210.738 20.016L207.602 15.662C207.565 15.606 207.546 15.5453 207.546 15.48C207.546 15.4053 207.574 15.34 207.63 15.284C207.686 15.228 207.751 15.2 207.826 15.2H208.162C208.227 15.2 208.283 15.2187 208.33 15.256C208.386 15.284 208.437 15.3353 208.484 15.41L211.298 19.33L214.056 15.41C214.103 15.3353 214.149 15.284 214.196 15.256C214.252 15.2187 214.313 15.2 214.378 15.2H214.686C214.761 15.2 214.826 15.228 214.882 15.284C214.938 15.34 214.966 15.4053 214.966 15.48C214.966 15.5453 214.947 15.606 214.91 15.662L211.816 20.044L215.064 24.538C215.083 24.5567 215.097 24.5847 215.106 24.622C215.115 24.65 215.12 24.6827 215.12 24.72C215.12 24.7947 215.092 24.86 215.036 24.916C214.98 24.972 214.915 25 214.84 25H214.504C214.439 25 214.378 24.9813 214.322 24.944C214.275 24.9067 214.229 24.8553 214.182 24.79L211.256 20.744L208.33 24.79C208.283 24.8553 208.232 24.9067 208.176 24.944C208.129 24.9813 208.073 25 208.008 25H207.7ZM217.155 25C217.062 25 216.987 24.972 216.931 24.916C216.875 24.8507 216.847 24.7713 216.847 24.678V15.522C216.847 15.4193 216.875 15.34 216.931 15.284C216.997 15.228 217.076 15.2 217.169 15.2H217.421C217.515 15.2 217.589 15.228 217.645 15.284C217.701 15.34 217.729 15.4193 217.729 15.522V23.46L223.483 15.368C223.502 15.3493 223.53 15.3167 223.567 15.27C223.614 15.2233 223.684 15.2 223.777 15.2H224.071C224.165 15.2 224.239 15.228 224.295 15.284C224.351 15.34 224.379 15.4193 224.379 15.522V24.692C224.379 24.7853 224.351 24.86 224.295 24.916C224.239 24.972 224.165 25 224.071 25H223.819C223.726 25 223.647 24.972 223.581 24.916C223.525 24.86 223.497 24.7853 223.497 24.692V16.768L217.757 24.832C217.748 24.8507 217.72 24.8833 217.673 24.93C217.627 24.9767 217.557 25 217.463 25H217.155ZM229.455 25C229.362 25 229.287 24.972 229.231 24.916C229.175 24.86 229.147 24.7853 229.147 24.692V16.04H226.375C226.282 16.04 226.207 16.012 226.151 15.956C226.095 15.9 226.067 15.8253 226.067 15.732V15.522C226.067 15.4193 226.095 15.34 226.151 15.284C226.207 15.228 226.282 15.2 226.375 15.2H232.787C232.89 15.2 232.969 15.228 233.025 15.284C233.081 15.34 233.109 15.4193 233.109 15.522V15.732C233.109 15.8253 233.081 15.9 233.025 15.956C232.969 16.012 232.89 16.04 232.787 16.04H230.029V24.692C230.029 24.7853 230.001 24.86 229.945 24.916C229.889 24.972 229.81 25 229.707 25H229.455ZM238.716 25C238.622 25 238.548 24.972 238.492 24.916C238.436 24.86 238.408 24.7853 238.408 24.692V15.522C238.408 15.4193 238.436 15.34 238.492 15.284C238.548 15.228 238.622 15.2 238.716 15.2H245.254C245.356 15.2 245.436 15.228 245.492 15.284C245.548 15.34 245.576 15.4193 245.576 15.522V24.692C245.576 24.7853 245.548 24.86 245.492 24.916C245.436 24.972 245.356 25 245.254 25H245.002C244.908 25 244.834 24.972 244.778 24.916C244.722 24.86 244.694 24.7853 244.694 24.692V16.04H239.29V24.692C239.29 24.7853 239.262 24.86 239.206 24.916C239.15 24.972 239.07 25 238.968 25H238.716ZM248.519 25C248.425 25 248.351 24.972 248.295 24.916C248.239 24.86 248.211 24.7853 248.211 24.692V15.522C248.211 15.4193 248.239 15.34 248.295 15.284C248.351 15.228 248.425 15.2 248.519 15.2H251.921C252.574 15.2 253.139 15.312 253.615 15.536C254.1 15.7507 254.473 16.0727 254.735 16.502C255.005 16.9313 255.141 17.4633 255.141 18.098C255.141 18.7327 255.005 19.2647 254.735 19.694C254.473 20.1233 254.1 20.45 253.615 20.674C253.139 20.8887 252.574 20.996 251.921 20.996H249.093V24.692C249.093 24.7853 249.065 24.86 249.009 24.916C248.953 24.972 248.873 25 248.771 25H248.519ZM249.093 20.156H251.851C252.663 20.156 253.265 19.9787 253.657 19.624C254.058 19.2693 254.259 18.7607 254.259 18.098C254.259 17.4353 254.058 16.9267 253.657 16.572C253.265 16.2173 252.663 16.04 251.851 16.04H249.093V20.156ZM260.32 25.14C259.545 25.14 258.887 25.0047 258.346 24.734C257.804 24.454 257.389 24.0293 257.1 23.46C256.81 22.8813 256.652 22.1533 256.624 21.276C256.614 20.856 256.61 20.464 256.61 20.1C256.61 19.736 256.614 19.344 256.624 18.924C256.652 18.056 256.82 17.3373 257.128 16.768C257.436 16.1893 257.86 15.76 258.402 15.48C258.952 15.2 259.592 15.06 260.32 15.06C261.048 15.06 261.682 15.2 262.224 15.48C262.774 15.76 263.204 16.1893 263.512 16.768C263.829 17.3373 263.997 18.056 264.016 18.924C264.034 19.344 264.044 19.736 264.044 20.1C264.044 20.464 264.034 20.856 264.016 21.276C263.997 22.1533 263.838 22.8813 263.54 23.46C263.25 24.0293 262.835 24.454 262.294 24.734C261.752 25.0047 261.094 25.14 260.32 25.14ZM260.32 24.3C261.122 24.3 261.78 24.0573 262.294 23.572C262.816 23.0867 263.096 22.298 263.134 21.206C263.152 20.786 263.162 20.4173 263.162 20.1C263.162 19.7827 263.152 19.414 263.134 18.994C263.115 18.266 262.98 17.6733 262.728 17.216C262.485 16.7587 262.154 16.4273 261.734 16.222C261.323 16.0073 260.852 15.9 260.32 15.9C259.797 15.9 259.326 16.0073 258.906 16.222C258.495 16.4273 258.164 16.7587 257.912 17.216C257.669 17.6733 257.534 18.266 257.506 18.994C257.496 19.414 257.492 19.7827 257.492 20.1C257.492 20.4173 257.496 20.786 257.506 21.206C257.543 22.298 257.823 23.0867 258.346 23.572C258.868 24.0573 259.526 24.3 260.32 24.3ZM265.543 26.946C265.45 26.946 265.375 26.918 265.319 26.862C265.263 26.806 265.235 26.7313 265.235 26.638V24.468C265.235 24.3747 265.263 24.3 265.319 24.244C265.375 24.188 265.45 24.16 265.543 24.16H265.865C266.08 24.16 266.276 24.062 266.453 23.866C266.63 23.6607 266.78 23.3387 266.901 22.9C267.032 22.4613 267.13 21.8873 267.195 21.178C267.26 20.4687 267.293 19.61 267.293 18.602V15.508C267.293 15.4147 267.321 15.34 267.377 15.284C267.433 15.228 267.508 15.2 267.601 15.2H272.585C272.688 15.2 272.767 15.228 272.823 15.284C272.879 15.34 272.907 15.4193 272.907 15.522V24.16H273.607C273.71 24.16 273.789 24.188 273.845 24.244C273.901 24.3 273.929 24.3747 273.929 24.468V26.638C273.929 26.7313 273.901 26.806 273.845 26.862C273.789 26.918 273.71 26.946 273.607 26.946H273.355C273.262 26.946 273.187 26.918 273.131 26.862C273.075 26.806 273.047 26.7313 273.047 26.638V25H266.117V26.638C266.117 26.7313 266.089 26.806 266.033 26.862C265.977 26.918 265.898 26.946 265.795 26.946H265.543ZM267.153 24.16H272.025V16.04H268.175V18.714C268.175 20.1887 268.086 21.3647 267.909 22.242C267.741 23.11 267.489 23.7493 267.153 24.16ZM275.032 25C274.957 25 274.892 24.972 274.836 24.916C274.78 24.86 274.752 24.7947 274.752 24.72C274.752 24.6733 274.761 24.622 274.78 24.566L278.322 15.48C278.359 15.3867 278.406 15.3167 278.462 15.27C278.527 15.2233 278.616 15.2 278.728 15.2H279.204C279.316 15.2 279.4 15.2233 279.456 15.27C279.521 15.3167 279.573 15.3867 279.61 15.48L283.152 24.566C283.171 24.622 283.18 24.6733 283.18 24.72C283.18 24.7947 283.152 24.86 283.096 24.916C283.04 24.972 282.975 25 282.9 25H282.62C282.527 25 282.457 24.9767 282.41 24.93C282.363 24.874 282.331 24.8273 282.312 24.79L281.444 22.55H276.488L275.62 24.79C275.611 24.8273 275.578 24.874 275.522 24.93C275.475 24.9767 275.405 25 275.312 25H275.032ZM276.824 21.71H281.108L278.966 16.194L276.824 21.71ZM284.473 25C284.38 25 284.301 24.9673 284.235 24.902C284.179 24.8367 284.151 24.7573 284.151 24.664C284.151 24.5893 284.161 24.538 284.179 24.51L287.189 19.96L284.459 15.662C284.413 15.5873 284.389 15.5267 284.389 15.48C284.389 15.4053 284.408 15.34 284.445 15.284C284.492 15.228 284.567 15.2 284.669 15.2H284.865C284.977 15.2 285.071 15.2187 285.145 15.256C285.22 15.284 285.281 15.3353 285.327 15.41L288.001 19.624H289.779V15.508C289.779 15.4147 289.807 15.34 289.863 15.284C289.919 15.228 289.994 15.2 290.087 15.2H290.353C290.447 15.2 290.521 15.228 290.577 15.284C290.633 15.34 290.661 15.4147 290.661 15.508V19.624H292.411L295.085 15.41C295.132 15.3353 295.193 15.284 295.267 15.256C295.342 15.2187 295.435 15.2 295.547 15.2H295.771C295.874 15.2 295.944 15.228 295.981 15.284C296.028 15.34 296.051 15.4053 296.051 15.48C296.051 15.5267 296.028 15.5873 295.981 15.662L293.251 19.96L296.261 24.51C296.28 24.538 296.289 24.5893 296.289 24.664C296.289 24.7573 296.257 24.8367 296.191 24.902C296.135 24.9673 296.061 25 295.967 25H295.729C295.645 25 295.58 24.986 295.533 24.958C295.487 24.9207 295.445 24.874 295.407 24.818L292.467 20.45H290.661V24.706C290.661 24.79 290.633 24.86 290.577 24.916C290.521 24.972 290.447 25 290.353 25H290.087C289.994 25 289.919 24.972 289.863 24.916C289.807 24.86 289.779 24.7853 289.779 24.692V20.45H287.945L285.033 24.818C284.996 24.874 284.954 24.9207 284.907 24.958C284.861 24.986 284.795 25 284.711 25H284.473Z" fill="#443E3E"/>
<rect width="176" height="41" transform="translate(327)" fill="white"/>
<path d="M360.51 12.0435C360.237 12.1344 360.022 12.2624 359.849 12.4318C359.758 12.5186 358.948 13.6218 358.043 14.8819C356.341 17.2659 356.027 17.6749 355.341 18.3856L354.932 18.8153L354.754 18.5467C353.974 17.3485 352.308 17.1791 351.313 18.1873C350.995 18.5095 350.809 18.8524 350.718 19.2821C350.627 19.7118 350.627 26.8266 350.718 27.2563C350.895 28.0908 351.54 28.756 352.358 28.9502C353.296 29.1692 354.279 28.7726 354.771 27.9752L354.924 27.7314L355.341 28.1363C355.816 28.5908 356.163 28.7932 356.705 28.9296C357.019 29.0081 357.171 29.0122 360.237 29.0122C363.77 29.0122 363.728 29.0122 364.224 28.756C364.538 28.5908 365.03 28.1115 365.17 27.8347C365.468 27.2439 368.149 21.1373 368.228 20.8728C368.306 20.6001 368.319 20.4638 368.319 19.7573C368.319 19.0177 368.31 18.931 368.224 18.7202C368.021 18.212 367.649 17.8319 367.182 17.6377C366.955 17.5468 366.943 17.5468 364.241 17.5344C362.745 17.5303 361.522 17.5138 361.522 17.5055C361.522 17.4931 361.749 16.923 362.022 16.2371C362.299 15.5471 362.567 14.8613 362.621 14.7084C362.964 13.7003 362.563 12.593 361.704 12.1674C361.427 12.0311 361.349 12.0145 361.035 12.0022C360.816 11.9939 360.609 12.0104 360.51 12.0435ZM361.373 13.0516C361.629 13.2334 361.811 13.6094 361.811 13.9647C361.811 14.2209 361.77 14.3407 361.088 16.0471C360.692 17.0428 360.365 17.9146 360.365 17.9807C360.365 18.1542 360.435 18.2864 360.572 18.3649C360.675 18.4269 360.964 18.4352 363.658 18.4352C366.03 18.4393 366.658 18.4517 366.782 18.493C367.017 18.5798 367.207 18.745 367.311 18.9599C367.401 19.1417 367.41 19.2119 367.406 19.7366C367.406 20.0672 367.381 20.4142 367.352 20.5423C367.298 20.7571 364.625 26.8307 364.361 27.3306C364.212 27.6198 363.985 27.8264 363.675 27.9752L363.443 28.0826L360.365 28.095C356.928 28.1074 356.919 28.1074 356.457 27.8306C356.32 27.7479 355.973 27.4463 355.668 27.1406L355.118 26.5952V23.2733V19.9556L355.812 19.245C356.738 18.2947 357.031 17.9187 358.878 15.3364C359.75 14.1217 360.489 13.1012 360.526 13.0723C360.778 12.8657 361.097 12.8574 361.373 13.0516ZM353.403 18.555C353.676 18.6748 353.932 18.9392 354.069 19.2326L354.188 19.4887V23.2692V27.0497L354.069 27.3058C353.841 27.8058 353.42 28.0785 352.887 28.0785C352.354 28.0785 351.932 27.8058 351.705 27.3058L351.585 27.0497V23.2692V19.4887L351.701 19.2408C352.019 18.5591 352.751 18.2658 353.403 18.555Z" fill="#443E3E"/>
<path d="M383.624 25C383.531 25 383.456 24.972 383.4 24.916C383.344 24.86 383.316 24.7853 383.316 24.692V15.522C383.316 15.4193 383.344 15.34 383.4 15.284C383.456 15.228 383.531 15.2 383.624 15.2H387.026C387.679 15.2 388.244 15.312 388.72 15.536C389.205 15.7507 389.579 16.0727 389.84 16.502C390.111 16.9313 390.246 17.4633 390.246 18.098C390.246 18.7327 390.111 19.2647 389.84 19.694C389.579 20.1233 389.205 20.45 388.72 20.674C388.244 20.8887 387.679 20.996 387.026 20.996H384.198V24.692C384.198 24.7853 384.17 24.86 384.114 24.916C384.058 24.972 383.979 25 383.876 25H383.624ZM384.198 20.156H386.956C387.768 20.156 388.37 19.9787 388.762 19.624C389.163 19.2693 389.364 18.7607 389.364 18.098C389.364 17.4353 389.163 16.9267 388.762 16.572C388.37 16.2173 387.768 16.04 386.956 16.04H384.198V20.156ZM392.415 25C392.322 25 392.247 24.972 392.191 24.916C392.135 24.86 392.107 24.7853 392.107 24.692V15.522C392.107 15.4193 392.135 15.34 392.191 15.284C392.247 15.228 392.322 15.2 392.415 15.2H397.875C397.978 15.2 398.057 15.228 398.113 15.284C398.169 15.34 398.197 15.4193 398.197 15.522V15.732C398.197 15.8253 398.169 15.9 398.113 15.956C398.057 16.012 397.978 16.04 397.875 16.04H392.989V19.61H397.567C397.67 19.61 397.749 19.638 397.805 19.694C397.861 19.75 397.889 19.8293 397.889 19.932V20.142C397.889 20.2353 397.861 20.31 397.805 20.366C397.749 20.422 397.67 20.45 397.567 20.45H392.989V24.16H397.987C398.09 24.16 398.169 24.188 398.225 24.244C398.281 24.3 398.309 24.3793 398.309 24.482V24.692C398.309 24.7853 398.281 24.86 398.225 24.916C398.169 24.972 398.09 25 397.987 25H392.415ZM400.7 25C400.607 25 400.532 24.972 400.476 24.916C400.42 24.86 400.392 24.7853 400.392 24.692V15.522C400.392 15.4193 400.42 15.34 400.476 15.284C400.532 15.228 400.607 15.2 400.7 15.2H400.952C401.055 15.2 401.134 15.228 401.19 15.284C401.246 15.34 401.274 15.4193 401.274 15.522V19.61H403.178L405.838 15.41C405.885 15.3353 405.946 15.284 406.02 15.256C406.095 15.2187 406.188 15.2 406.3 15.2H406.524C406.627 15.2 406.697 15.228 406.734 15.284C406.781 15.34 406.804 15.4053 406.804 15.48C406.804 15.5267 406.781 15.5873 406.734 15.662L404.004 19.96L407.014 24.51C407.033 24.538 407.042 24.5893 407.042 24.664C407.042 24.7573 407.01 24.8367 406.944 24.902C406.888 24.9673 406.814 25 406.72 25H406.482C406.398 25 406.333 24.986 406.286 24.958C406.24 24.9207 406.198 24.874 406.16 24.818L403.22 20.45H401.274V24.692C401.274 24.7853 401.246 24.86 401.19 24.916C401.134 24.972 401.055 25 400.952 25H400.7ZM412.31 25.14C411.535 25.14 410.877 25.0047 410.336 24.734C409.794 24.454 409.379 24.0293 409.09 23.46C408.8 22.8813 408.642 22.1533 408.614 21.276C408.604 20.856 408.6 20.464 408.6 20.1C408.6 19.736 408.604 19.344 408.614 18.924C408.642 18.056 408.81 17.3373 409.118 16.768C409.426 16.1893 409.85 15.76 410.392 15.48C410.942 15.2 411.582 15.06 412.31 15.06C413.038 15.06 413.672 15.2 414.214 15.48C414.764 15.76 415.194 16.1893 415.502 16.768C415.819 17.3373 415.987 18.056 416.006 18.924C416.024 19.344 416.034 19.736 416.034 20.1C416.034 20.464 416.024 20.856 416.006 21.276C415.987 22.1533 415.828 22.8813 415.53 23.46C415.24 24.0293 414.825 24.454 414.284 24.734C413.742 25.0047 413.084 25.14 412.31 25.14ZM412.31 24.3C413.112 24.3 413.77 24.0573 414.284 23.572C414.806 23.0867 415.086 22.298 415.124 21.206C415.142 20.786 415.152 20.4173 415.152 20.1C415.152 19.7827 415.142 19.414 415.124 18.994C415.105 18.266 414.97 17.6733 414.718 17.216C414.475 16.7587 414.144 16.4273 413.724 16.222C413.313 16.0073 412.842 15.9 412.31 15.9C411.787 15.9 411.316 16.0073 410.896 16.222C410.485 16.4273 410.154 16.7587 409.902 17.216C409.659 17.6733 409.524 18.266 409.496 18.994C409.486 19.414 409.482 19.7827 409.482 20.1C409.482 20.4173 409.486 20.786 409.496 21.206C409.533 22.298 409.813 23.0867 410.336 23.572C410.858 24.0573 411.516 24.3 412.31 24.3ZM418.583 25C418.49 25 418.411 24.972 418.345 24.916C418.289 24.86 418.261 24.7853 418.261 24.692V15.522C418.261 15.4193 418.289 15.34 418.345 15.284C418.411 15.228 418.49 15.2 418.583 15.2H418.933C419.027 15.2 419.097 15.2233 419.143 15.27C419.19 15.3167 419.218 15.354 419.227 15.382L422.405 21.57L425.597 15.382C425.616 15.354 425.644 15.3167 425.681 15.27C425.728 15.2233 425.798 15.2 425.891 15.2H426.227C426.33 15.2 426.409 15.228 426.465 15.284C426.521 15.34 426.549 15.4193 426.549 15.522V24.692C426.549 24.7853 426.521 24.86 426.465 24.916C426.409 24.972 426.33 25 426.227 25H425.975C425.882 25 425.807 24.972 425.751 24.916C425.695 24.86 425.667 24.7853 425.667 24.692V17.104L422.993 22.368C422.956 22.4613 422.9 22.5313 422.825 22.578C422.76 22.6247 422.671 22.648 422.559 22.648H422.251C422.139 22.648 422.051 22.6247 421.985 22.578C421.92 22.5313 421.864 22.4613 421.817 22.368L419.143 17.104V24.692C419.143 24.7853 419.115 24.86 419.059 24.916C419.003 24.972 418.929 25 418.835 25H418.583ZM429.493 25C429.4 25 429.325 24.972 429.269 24.916C429.213 24.86 429.185 24.7853 429.185 24.692V15.522C429.185 15.4193 429.213 15.34 429.269 15.284C429.325 15.228 429.4 15.2 429.493 15.2H434.953C435.056 15.2 435.135 15.228 435.191 15.284C435.247 15.34 435.275 15.4193 435.275 15.522V15.732C435.275 15.8253 435.247 15.9 435.191 15.956C435.135 16.012 435.056 16.04 434.953 16.04H430.067V19.61H434.645C434.748 19.61 434.827 19.638 434.883 19.694C434.939 19.75 434.967 19.8293 434.967 19.932V20.142C434.967 20.2353 434.939 20.31 434.883 20.366C434.827 20.422 434.748 20.45 434.645 20.45H430.067V24.16H435.065C435.168 24.16 435.247 24.188 435.303 24.244C435.359 24.3 435.387 24.3793 435.387 24.482V24.692C435.387 24.7853 435.359 24.86 435.303 24.916C435.247 24.972 435.168 25 435.065 25H429.493ZM437.778 25C437.685 25 437.61 24.972 437.554 24.916C437.498 24.86 437.47 24.7853 437.47 24.692V15.522C437.47 15.4193 437.498 15.34 437.554 15.284C437.61 15.228 437.685 15.2 437.778 15.2H438.03C438.133 15.2 438.212 15.228 438.268 15.284C438.324 15.34 438.352 15.4193 438.352 15.522V19.61H443.756V15.522C443.756 15.4193 443.784 15.34 443.84 15.284C443.896 15.228 443.971 15.2 444.064 15.2H444.316C444.419 15.2 444.498 15.228 444.554 15.284C444.61 15.34 444.638 15.4193 444.638 15.522V24.692C444.638 24.7853 444.61 24.86 444.554 24.916C444.498 24.972 444.419 25 444.316 25H444.064C443.971 25 443.896 24.972 443.84 24.916C443.784 24.86 443.756 24.7853 443.756 24.692V20.45H438.352V24.692C438.352 24.7853 438.324 24.86 438.268 24.916C438.212 24.972 438.133 25 438.03 25H437.778ZM446.545 26.946C446.452 26.946 446.377 26.918 446.321 26.862C446.265 26.806 446.237 26.7313 446.237 26.638V24.468C446.237 24.3747 446.265 24.3 446.321 24.244C446.377 24.188 446.452 24.16 446.545 24.16H446.867C447.082 24.16 447.278 24.062 447.455 23.866C447.632 23.6607 447.782 23.3387 447.903 22.9C448.034 22.4613 448.132 21.8873 448.197 21.178C448.262 20.4687 448.295 19.61 448.295 18.602V15.508C448.295 15.4147 448.323 15.34 448.379 15.284C448.435 15.228 448.51 15.2 448.603 15.2H453.587C453.69 15.2 453.769 15.228 453.825 15.284C453.881 15.34 453.909 15.4193 453.909 15.522V24.16H454.609C454.712 24.16 454.791 24.188 454.847 24.244C454.903 24.3 454.931 24.3747 454.931 24.468V26.638C454.931 26.7313 454.903 26.806 454.847 26.862C454.791 26.918 454.712 26.946 454.609 26.946H454.357C454.264 26.946 454.189 26.918 454.133 26.862C454.077 26.806 454.049 26.7313 454.049 26.638V25H447.119V26.638C447.119 26.7313 447.091 26.806 447.035 26.862C446.979 26.918 446.9 26.946 446.797 26.946H446.545ZM448.155 24.16H453.027V16.04H449.177V18.714C449.177 20.1887 449.088 21.3647 448.911 22.242C448.743 23.11 448.491 23.7493 448.155 24.16ZM457 25C456.907 25 456.832 24.972 456.776 24.916C456.72 24.86 456.692 24.7853 456.692 24.692V24.482C456.692 24.3793 456.72 24.3 456.776 24.244C456.832 24.188 456.907 24.16 457 24.16H457.476C457.793 24.16 458.064 24.076 458.288 23.908C458.521 23.74 458.741 23.4787 458.946 23.124C459.161 22.7693 459.389 22.312 459.632 21.752L462.404 15.41C462.432 15.3353 462.474 15.284 462.53 15.256C462.595 15.2187 462.661 15.2 462.726 15.2H463.02C463.095 15.2 463.16 15.228 463.216 15.284C463.272 15.34 463.3 15.4053 463.3 15.48C463.3 15.5173 463.295 15.55 463.286 15.578C463.286 15.5967 463.277 15.62 463.258 15.648L460.374 22.144C460.159 22.62 459.959 23.04 459.772 23.404C459.585 23.7587 459.385 24.0573 459.17 24.3C458.965 24.5333 458.727 24.7107 458.456 24.832C458.185 24.944 457.859 25 457.476 25H457ZM459.562 22.676L455.67 15.648C455.642 15.592 455.628 15.536 455.628 15.48C455.628 15.4053 455.656 15.34 455.712 15.284C455.768 15.228 455.833 15.2 455.908 15.2H456.202C456.267 15.2 456.328 15.2187 456.384 15.256C456.44 15.284 456.487 15.3353 456.524 15.41L460.066 21.738L459.562 22.676ZM464.931 25C464.837 25 464.763 24.972 464.707 24.916C464.651 24.86 464.623 24.7853 464.623 24.692V15.522C464.623 15.4193 464.651 15.34 464.707 15.284C464.763 15.228 464.837 15.2 464.931 15.2H470.391C470.493 15.2 470.573 15.228 470.629 15.284C470.685 15.34 470.713 15.4193 470.713 15.522V15.732C470.713 15.8253 470.685 15.9 470.629 15.956C470.573 16.012 470.493 16.04 470.391 16.04H465.505V19.61H470.083C470.185 19.61 470.265 19.638 470.321 19.694C470.377 19.75 470.405 19.8293 470.405 19.932V20.142C470.405 20.2353 470.377 20.31 470.321 20.366C470.265 20.422 470.185 20.45 470.083 20.45H465.505V24.16H470.503C470.605 24.16 470.685 24.188 470.741 24.244C470.797 24.3 470.825 24.3793 470.825 24.482V24.692C470.825 24.7853 470.797 24.86 470.741 24.916C470.685 24.972 470.605 25 470.503 25H464.931ZM473.23 25C473.136 25 473.057 24.972 472.992 24.916C472.936 24.86 472.908 24.7853 472.908 24.692V15.522C472.908 15.4193 472.936 15.34 472.992 15.284C473.057 15.228 473.136 15.2 473.23 15.2H473.58C473.673 15.2 473.743 15.2233 473.79 15.27C473.836 15.3167 473.864 15.354 473.874 15.382L477.052 21.57L480.244 15.382C480.262 15.354 480.29 15.3167 480.328 15.27C480.374 15.2233 480.444 15.2 480.538 15.2H480.874C480.976 15.2 481.056 15.228 481.112 15.284C481.168 15.34 481.196 15.4193 481.196 15.522V24.692C481.196 24.7853 481.168 24.86 481.112 24.916C481.056 24.972 480.976 25 480.874 25H480.622C480.528 25 480.454 24.972 480.398 24.916C480.342 24.86 480.314 24.7853 480.314 24.692V17.104L477.64 22.368C477.602 22.4613 477.546 22.5313 477.472 22.578C477.406 22.6247 477.318 22.648 477.206 22.648H476.898C476.786 22.648 476.697 22.6247 476.632 22.578C476.566 22.5313 476.51 22.4613 476.464 22.368L473.79 17.104V24.692C473.79 24.7853 473.762 24.86 473.706 24.916C473.65 24.972 473.575 25 473.482 25H473.23Z" fill="#443E3E"/>
<rect width="171" height="41" transform="translate(513)" fill="white"/>
<path d="M547.183 11.0965C546.63 11.4676 545.724 12.373 545.175 13.0967C544.296 14.2656 543.657 15.6424 543.409 16.9189C543.231 17.8318 543.127 18.9377 543.123 19.9322C543.123 20.3293 543.112 20.4258 543.071 20.4258C543.045 20.4258 542.889 20.359 542.726 20.2773C542.036 19.9322 541.483 19.0861 541.23 17.9766C541.127 17.5164 541.104 17.4719 540.963 17.3828C540.796 17.2826 540.689 17.29 540.47 17.4162C539.917 17.7316 539.33 18.4924 538.971 19.3533C538.343 20.8525 538.184 23.0939 538.592 24.6748C539.037 26.4078 540.191 27.9813 541.709 28.9238C542.886 29.6512 544.103 30 545.498 30C547.443 30 549.176 29.2838 550.541 27.9182C551.658 26.8012 552.326 25.4615 552.571 23.8473C552.645 23.3352 552.627 22.1328 552.53 21.4834C552.36 20.3293 552.007 19.2791 551.443 18.2549C551.09 17.6129 550.768 17.123 549.888 15.9133C548.957 14.633 548.753 14.3139 548.467 13.7275C548.122 13.0188 547.91 12.2469 547.91 11.6902C547.906 11.2004 547.784 11 547.487 11C547.376 11 547.283 11.0297 547.183 11.0965ZM547.168 12.4918C547.264 13.067 547.502 13.7127 547.847 14.3584C548.14 14.9076 548.419 15.3232 549.198 16.392C550.259 17.8467 550.578 18.3514 550.998 19.2346C551.721 20.7635 551.981 22.6635 551.673 24.1738C551.358 25.7064 550.382 27.1648 549.072 28.0592C548.756 28.2781 548.096 28.6529 548.096 28.6158C548.096 28.6047 548.163 28.4822 548.244 28.3449C548.578 27.7771 548.73 27.0238 548.656 26.3039C548.552 25.2797 548.341 24.7564 547.55 23.5801C547.298 23.2016 547.031 22.7748 546.96 22.6264C546.823 22.3406 546.723 21.9547 546.723 21.6912C546.723 21.5576 546.7 21.5094 546.596 21.4055C546.359 21.168 546.121 21.2459 545.643 21.7209C545.205 22.1588 544.774 22.8453 544.559 23.4502C544.437 23.7916 544.355 24.2109 544.314 24.7045C544.296 24.9271 544.27 25.1164 544.259 25.1275C544.225 25.1609 544.055 24.7787 543.991 24.5227C543.873 24.0514 543.613 23.9104 543.268 24.133C542.874 24.3779 542.533 24.9939 542.403 25.6879C542.218 26.6824 542.344 27.6473 542.752 28.3449C542.834 28.4859 542.897 28.6047 542.889 28.6121C542.863 28.6381 542.106 28.1928 541.78 27.959C540.759 27.2354 539.883 26.0256 539.494 24.8047C539.264 24.0773 539.208 23.6877 539.212 22.7637C539.215 21.3609 539.401 20.3961 539.857 19.4424C540.036 19.0713 540.436 18.4812 540.488 18.5146C540.503 18.5258 540.529 18.5777 540.544 18.6334C540.629 18.9971 540.997 19.7467 541.245 20.0732C541.809 20.8191 542.403 21.1865 543.216 21.2867C543.513 21.3201 543.568 21.3201 543.687 21.2645C543.906 21.1605 543.939 21.0418 543.939 20.3813C543.943 18.8227 544.095 17.4348 544.374 16.4736C544.76 15.1266 545.635 13.6867 546.723 12.6031C546.934 12.3953 547.112 12.2246 547.116 12.2246C547.12 12.2246 547.146 12.3471 547.168 12.4918ZM546.055 22.6189C546.055 22.7488 546.437 23.4316 546.875 24.0811C547.595 25.1498 547.784 25.6322 547.825 26.5154C547.84 26.8828 547.832 27.0424 547.784 27.2687C547.688 27.6992 547.465 28.1037 547.146 28.4377C546.853 28.7457 546.593 28.9201 546.211 29.0648C545.992 29.1502 545.906 29.1613 545.498 29.1613C545.09 29.1613 545.005 29.1502 544.786 29.0648C544.403 28.9201 544.144 28.7457 543.854 28.4414C543.364 27.933 543.16 27.3912 543.16 26.623C543.16 26.3855 543.179 26.0924 543.201 25.9699C543.253 25.6805 543.346 25.3613 543.375 25.3613C543.39 25.3613 543.438 25.4244 543.483 25.5023C543.728 25.9254 544.11 26.1777 544.552 26.2074C544.852 26.226 544.982 26.174 545.045 25.9996C545.068 25.9439 545.094 25.6471 545.108 25.3428C545.157 24.1441 545.309 23.5986 545.78 22.8861C545.969 22.6004 546.055 22.5188 546.055 22.6189Z" fill="#443E3E"/>
<path d="M569.624 25C569.531 25 569.456 24.972 569.4 24.916C569.344 24.86 569.316 24.7853 569.316 24.692V15.522C569.316 15.4193 569.344 15.34 569.4 15.284C569.456 15.228 569.531 15.2 569.624 15.2H573.026C573.679 15.2 574.244 15.312 574.72 15.536C575.205 15.7507 575.579 16.0727 575.84 16.502C576.111 16.9313 576.246 17.4633 576.246 18.098C576.246 18.7327 576.111 19.2647 575.84 19.694C575.579 20.1233 575.205 20.45 574.72 20.674C574.244 20.8887 573.679 20.996 573.026 20.996H570.198V24.692C570.198 24.7853 570.17 24.86 570.114 24.916C570.058 24.972 569.979 25 569.876 25H569.624ZM570.198 20.156H572.956C573.768 20.156 574.37 19.9787 574.762 19.624C575.163 19.2693 575.364 18.7607 575.364 18.098C575.364 17.4353 575.163 16.9267 574.762 16.572C574.37 16.2173 573.768 16.04 572.956 16.04H570.198V20.156ZM577.407 25C577.332 25 577.267 24.972 577.211 24.916C577.155 24.86 577.127 24.7947 577.127 24.72C577.127 24.6733 577.136 24.622 577.155 24.566L580.697 15.48C580.734 15.3867 580.781 15.3167 580.837 15.27C580.902 15.2233 580.991 15.2 581.103 15.2H581.579C581.691 15.2 581.775 15.2233 581.831 15.27C581.896 15.3167 581.948 15.3867 581.985 15.48L585.527 24.566C585.546 24.622 585.555 24.6733 585.555 24.72C585.555 24.7947 585.527 24.86 585.471 24.916C585.415 24.972 585.35 25 585.275 25H584.995C584.902 25 584.832 24.9767 584.785 24.93C584.738 24.874 584.706 24.8273 584.687 24.79L583.819 22.55H578.863L577.995 24.79C577.986 24.8273 577.953 24.874 577.897 24.93C577.85 24.9767 577.78 25 577.687 25H577.407ZM579.199 21.71H583.483L581.341 16.194L579.199 21.71ZM590.53 25.14C589.681 25.14 588.986 24.9767 588.444 24.65C587.912 24.314 587.516 23.8613 587.254 23.292C586.993 22.7227 586.848 22.074 586.82 21.346C586.811 20.9633 586.806 20.5527 586.806 20.114C586.806 19.6753 586.811 19.2553 586.82 18.854C586.848 18.126 586.993 17.4773 587.254 16.908C587.516 16.3293 587.912 15.8767 588.444 15.55C588.986 15.2233 589.681 15.06 590.53 15.06C591.193 15.06 591.758 15.1533 592.224 15.34C592.691 15.5267 593.069 15.774 593.358 16.082C593.657 16.3807 593.876 16.7073 594.016 17.062C594.166 17.4073 594.25 17.748 594.268 18.084C594.278 18.168 594.25 18.238 594.184 18.294C594.128 18.3407 594.058 18.364 593.974 18.364H593.694C593.62 18.364 593.554 18.3453 593.498 18.308C593.442 18.2613 593.405 18.182 593.386 18.07C593.209 17.2393 592.873 16.67 592.378 16.362C591.893 16.054 591.277 15.9 590.53 15.9C589.681 15.9 589.004 16.1427 588.5 16.628C588.006 17.104 587.74 17.8693 587.702 18.924C587.674 19.6893 587.674 20.4733 587.702 21.276C587.74 22.3307 588.006 23.1007 588.5 23.586C589.004 24.062 589.681 24.3 590.53 24.3C591.277 24.3 591.893 24.146 592.378 23.838C592.873 23.53 593.209 22.9607 593.386 22.13C593.405 22.018 593.442 21.9433 593.498 21.906C593.554 21.8593 593.62 21.836 593.694 21.836H593.974C594.058 21.836 594.128 21.864 594.184 21.92C594.25 21.9667 594.278 22.032 594.268 22.116C594.25 22.452 594.166 22.7973 594.016 23.152C593.876 23.4973 593.657 23.824 593.358 24.132C593.069 24.4307 592.691 24.6733 592.224 24.86C591.758 25.0467 591.193 25.14 590.53 25.14ZM596.64 25C596.546 25 596.472 24.972 596.416 24.916C596.36 24.86 596.332 24.7853 596.332 24.692V15.522C596.332 15.4193 596.36 15.34 596.416 15.284C596.472 15.228 596.546 15.2 596.64 15.2H603.178C603.28 15.2 603.36 15.228 603.416 15.284C603.472 15.34 603.5 15.4193 603.5 15.522V24.692C603.5 24.7853 603.472 24.86 603.416 24.916C603.36 24.972 603.28 25 603.178 25H602.926C602.832 25 602.758 24.972 602.702 24.916C602.646 24.86 602.618 24.7853 602.618 24.692V16.04H597.214V24.692C597.214 24.7853 597.186 24.86 597.13 24.916C597.074 24.972 596.994 25 596.892 25H596.64ZM606.442 25C606.349 25 606.274 24.972 606.218 24.916C606.162 24.86 606.134 24.7853 606.134 24.692V15.522C606.134 15.4193 606.162 15.34 606.218 15.284C606.274 15.228 606.349 15.2 606.442 15.2H609.844C610.498 15.2 611.062 15.312 611.538 15.536C612.024 15.7507 612.397 16.0727 612.658 16.502C612.929 16.9313 613.064 17.4633 613.064 18.098C613.064 18.7327 612.929 19.2647 612.658 19.694C612.397 20.1233 612.024 20.45 611.538 20.674C611.062 20.8887 610.498 20.996 609.844 20.996H607.016V24.692C607.016 24.7853 606.988 24.86 606.932 24.916C606.876 24.972 606.797 25 606.694 25H606.442ZM607.016 20.156H609.774C610.586 20.156 611.188 19.9787 611.58 19.624C611.982 19.2693 612.182 18.7607 612.182 18.098C612.182 17.4353 611.982 16.9267 611.58 16.572C611.188 16.2173 610.586 16.04 609.774 16.04H607.016V20.156ZM618.243 25.14C617.469 25.14 616.811 25.0047 616.269 24.734C615.728 24.454 615.313 24.0293 615.023 23.46C614.734 22.8813 614.575 22.1533 614.547 21.276C614.538 20.856 614.533 20.464 614.533 20.1C614.533 19.736 614.538 19.344 614.547 18.924C614.575 18.056 614.743 17.3373 615.051 16.768C615.359 16.1893 615.784 15.76 616.325 15.48C616.876 15.2 617.515 15.06 618.243 15.06C618.971 15.06 619.606 15.2 620.147 15.48C620.698 15.76 621.127 16.1893 621.435 16.768C621.753 17.3373 621.921 18.056 621.939 18.924C621.958 19.344 621.967 19.736 621.967 20.1C621.967 20.464 621.958 20.856 621.939 21.276C621.921 22.1533 621.762 22.8813 621.463 23.46C621.174 24.0293 620.759 24.454 620.217 24.734C619.676 25.0047 619.018 25.14 618.243 25.14ZM618.243 24.3C619.046 24.3 619.704 24.0573 620.217 23.572C620.74 23.0867 621.02 22.298 621.057 21.206C621.076 20.786 621.085 20.4173 621.085 20.1C621.085 19.7827 621.076 19.414 621.057 18.994C621.039 18.266 620.903 17.6733 620.651 17.216C620.409 16.7587 620.077 16.4273 619.657 16.222C619.247 16.0073 618.775 15.9 618.243 15.9C617.721 15.9 617.249 16.0073 616.829 16.222C616.419 16.4273 616.087 16.7587 615.835 17.216C615.593 17.6733 615.457 18.266 615.429 18.994C615.42 19.414 615.415 19.7827 615.415 20.1C615.415 20.4173 615.42 20.786 615.429 21.206C615.467 22.298 615.747 23.0867 616.269 23.572C616.792 24.0573 617.45 24.3 618.243 24.3ZM623.467 26.946C623.374 26.946 623.299 26.918 623.243 26.862C623.187 26.806 623.159 26.7313 623.159 26.638V24.468C623.159 24.3747 623.187 24.3 623.243 24.244C623.299 24.188 623.374 24.16 623.467 24.16H623.789C624.004 24.16 624.2 24.062 624.377 23.866C624.554 23.6607 624.704 23.3387 624.825 22.9C624.956 22.4613 625.054 21.8873 625.119 21.178C625.184 20.4687 625.217 19.61 625.217 18.602V15.508C625.217 15.4147 625.245 15.34 625.301 15.284C625.357 15.228 625.432 15.2 625.525 15.2H630.509C630.612 15.2 630.691 15.228 630.747 15.284C630.803 15.34 630.831 15.4193 630.831 15.522V24.16H631.531C631.634 24.16 631.713 24.188 631.769 24.244C631.825 24.3 631.853 24.3747 631.853 24.468V26.638C631.853 26.7313 631.825 26.806 631.769 26.862C631.713 26.918 631.634 26.946 631.531 26.946H631.279C631.186 26.946 631.111 26.918 631.055 26.862C630.999 26.806 630.971 26.7313 630.971 26.638V25H624.041V26.638C624.041 26.7313 624.013 26.806 623.957 26.862C623.901 26.918 623.822 26.946 623.719 26.946H623.467ZM625.077 24.16H629.949V16.04H626.099V18.714C626.099 20.1887 626.01 21.3647 625.833 22.242C625.665 23.11 625.413 23.7493 625.077 24.16ZM632.956 25C632.881 25 632.816 24.972 632.76 24.916C632.704 24.86 632.676 24.7947 632.676 24.72C632.676 24.6733 632.685 24.622 632.704 24.566L636.246 15.48C636.283 15.3867 636.33 15.3167 636.386 15.27C636.451 15.2233 636.54 15.2 636.652 15.2H637.128C637.24 15.2 637.324 15.2233 637.38 15.27C637.445 15.3167 637.497 15.3867 637.534 15.48L641.076 24.566C641.095 24.622 641.104 24.6733 641.104 24.72C641.104 24.7947 641.076 24.86 641.02 24.916C640.964 24.972 640.899 25 640.824 25H640.544C640.451 25 640.381 24.9767 640.334 24.93C640.287 24.874 640.255 24.8273 640.236 24.79L639.368 22.55H634.412L633.544 24.79C633.535 24.8273 633.502 24.874 633.446 24.93C633.399 24.9767 633.329 25 633.236 25H632.956ZM634.748 21.71H639.032L636.89 16.194L634.748 21.71ZM642.397 25C642.304 25 642.225 24.9673 642.159 24.902C642.103 24.8367 642.075 24.7573 642.075 24.664C642.075 24.5893 642.085 24.538 642.103 24.51L645.113 19.96L642.383 15.662C642.337 15.5873 642.313 15.5267 642.313 15.48C642.313 15.4053 642.332 15.34 642.369 15.284C642.416 15.228 642.491 15.2 642.593 15.2H642.789C642.901 15.2 642.995 15.2187 643.069 15.256C643.144 15.284 643.205 15.3353 643.251 15.41L645.925 19.624H647.703V15.508C647.703 15.4147 647.731 15.34 647.787 15.284C647.843 15.228 647.918 15.2 648.011 15.2H648.277C648.371 15.2 648.445 15.228 648.501 15.284C648.557 15.34 648.585 15.4147 648.585 15.508V19.624H650.335L653.009 15.41C653.056 15.3353 653.117 15.284 653.191 15.256C653.266 15.2187 653.359 15.2 653.471 15.2H653.695C653.798 15.2 653.868 15.228 653.905 15.284C653.952 15.34 653.975 15.4053 653.975 15.48C653.975 15.5267 653.952 15.5873 653.905 15.662L651.175 19.96L654.185 24.51C654.204 24.538 654.213 24.5893 654.213 24.664C654.213 24.7573 654.181 24.8367 654.115 24.902C654.059 24.9673 653.985 25 653.891 25H653.653C653.569 25 653.504 24.986 653.457 24.958C653.411 24.9207 653.369 24.874 653.331 24.818L650.391 20.45H648.585V24.706C648.585 24.79 648.557 24.86 648.501 24.916C648.445 24.972 648.371 25 648.277 25H648.011C647.918 25 647.843 24.972 647.787 24.916C647.731 24.86 647.703 24.7853 647.703 24.692V20.45H645.869L642.957 24.818C642.92 24.874 642.878 24.9207 642.831 24.958C642.785 24.986 642.719 25 642.635 25H642.397ZM655.46 25C655.385 25 655.32 24.972 655.264 24.916C655.208 24.86 655.18 24.7947 655.18 24.72C655.18 24.6733 655.189 24.622 655.208 24.566L658.75 15.48C658.787 15.3867 658.834 15.3167 658.89 15.27C658.955 15.2233 659.044 15.2 659.156 15.2H659.632C659.744 15.2 659.828 15.2233 659.884 15.27C659.949 15.3167 660 15.3867 660.038 15.48L663.58 24.566C663.598 24.622 663.608 24.6733 663.608 24.72C663.608 24.7947 663.58 24.86 663.524 24.916C663.468 24.972 663.402 25 663.328 25H663.048C662.954 25 662.884 24.9767 662.838 24.93C662.791 24.874 662.758 24.8273 662.74 24.79L661.872 22.55H656.916L656.048 24.79C656.038 24.8273 656.006 24.874 655.95 24.93C655.903 24.9767 655.833 25 655.74 25H655.46ZM657.252 21.71H661.536L659.394 16.194L657.252 21.71Z" fill="#443E3E"/>
<defs>
<linearGradient id="paint0_linear_14_83" x1="5.28991e-07" y1="20.5" x2="142" y2="20.5" gradientUnits="userSpaceOnUse">
<stop stop-color="#E81212"/>
<stop offset="1" stop-color="#FCCD05"/>
</linearGradient>
</defs>
</svg>
