<svg width="300" height="57" viewBox="0 0 300 57" fill="none" xmlns="http://www.w3.org/2000/svg">
<path d="M1.782 20C1.65 20 1.542 19.958 1.458 19.874C1.374 19.778 1.332 19.67 1.332 19.55V7.85C1.332 7.718 1.374 7.61 1.458 7.526C1.554 7.442 1.662 7.4 1.782 7.4H3.744C3.876 7.4 3.984 7.442 4.068 7.526C4.152 7.61 4.194 7.718 4.194 7.85V15.626L9.72 7.724C9.78 7.64 9.852 7.568 9.936 7.508C10.032 7.436 10.152 7.4 10.296 7.4H12.06C12.192 7.4 12.3 7.442 12.384 7.526C12.468 7.61 12.51 7.718 12.51 7.85V19.55C12.51 19.682 12.468 19.79 12.384 19.874C12.3 19.958 12.192 20 12.06 20H10.098C9.978 20 9.87 19.958 9.774 19.874C9.69 19.79 9.648 19.682 9.648 19.55V12.008L4.122 19.676C4.086 19.748 4.026 19.82 3.942 19.892C3.858 19.964 3.732 20 3.564 20H1.782ZM23.554 20C23.422 20 23.314 19.958 23.23 19.874C23.146 19.79 23.104 19.682 23.104 19.55V9.956H19.486V11.918C19.486 13.37 19.414 14.606 19.27 15.626C19.126 16.634 18.88 17.456 18.532 18.092C18.184 18.728 17.704 19.202 17.092 19.514C16.492 19.814 15.724 19.976 14.788 20C14.668 20 14.56 19.958 14.464 19.874C14.38 19.778 14.338 19.664 14.338 19.532V17.93C14.338 17.678 14.476 17.528 14.752 17.48C15.1 17.42 15.394 17.252 15.634 16.976C15.886 16.7 16.09 16.316 16.246 15.824C16.414 15.32 16.534 14.714 16.606 14.006C16.678 13.286 16.714 12.47 16.714 11.558V7.85C16.714 7.718 16.756 7.61 16.84 7.526C16.924 7.442 17.026 7.4 17.146 7.4H25.516C25.648 7.4 25.756 7.442 25.84 7.526C25.924 7.61 25.966 7.718 25.966 7.85V19.55C25.966 19.682 25.924 19.79 25.84 19.874C25.756 19.958 25.648 20 25.516 20H23.554ZM29.0808 20C28.9488 20 28.8408 19.958 28.7568 19.874C28.6728 19.79 28.6308 19.682 28.6308 19.55V7.85C28.6308 7.718 28.6728 7.61 28.7568 7.526C28.8408 7.442 28.9488 7.4 29.0808 7.4H31.0428C31.1748 7.4 31.2828 7.442 31.3668 7.526C31.4508 7.61 31.4928 7.718 31.4928 7.85V11.846H33.6168C35.0928 11.846 36.2388 12.182 37.0548 12.854C37.8708 13.514 38.2788 14.516 38.2788 15.86C38.2788 16.652 38.0988 17.366 37.7388 18.002C37.3908 18.626 36.8688 19.118 36.1728 19.478C35.4768 19.826 34.6248 20 33.6168 20H29.0808ZM31.4928 17.75H33.5268C34.1028 17.75 34.5468 17.576 34.8588 17.228C35.1708 16.868 35.3268 16.412 35.3268 15.86C35.3268 15.26 35.1708 14.816 34.8588 14.528C34.5468 14.228 34.1028 14.078 33.5268 14.078H31.4928V17.75ZM47.5768 20C47.4448 20 47.3368 19.958 47.2528 19.874C47.1688 19.79 47.1268 19.682 47.1268 19.55V15.554H44.6068C43.7428 15.554 42.9808 15.392 42.3208 15.068C41.6728 14.744 41.1688 14.282 40.8088 13.682C40.4488 13.07 40.2688 12.35 40.2688 11.522C40.2688 10.754 40.4428 10.058 40.7908 9.434C41.1508 8.81 41.6728 8.318 42.3568 7.958C43.0528 7.586 43.9108 7.4 44.9308 7.4H49.5388C49.6708 7.4 49.7788 7.442 49.8628 7.526C49.9468 7.61 49.9888 7.718 49.9888 7.85V19.55C49.9888 19.682 49.9468 19.79 49.8628 19.874C49.7788 19.958 49.6708 20 49.5388 20H47.5768ZM40.3768 20C40.2688 20 40.1788 19.964 40.1068 19.892C40.0348 19.808 39.9988 19.718 39.9988 19.622C39.9988 19.562 40.0168 19.496 40.0528 19.424L42.9148 14.672L45.5968 15.122L43.0948 19.514C43.0348 19.634 42.9508 19.748 42.8428 19.856C42.7348 19.952 42.5788 20 42.3748 20H40.3768ZM45.0208 13.286H47.1268V9.65H45.0208C44.4448 9.65 44.0008 9.824 43.6888 10.172C43.3768 10.52 43.2208 10.97 43.2208 11.522C43.2208 12.086 43.3708 12.524 43.6708 12.836C43.9708 13.136 44.4208 13.286 45.0208 13.286ZM63.9948 20C63.8628 20 63.7548 19.958 63.6708 19.874C63.5868 19.79 63.5448 19.682 63.5448 19.55V15.554H61.0248C60.1608 15.554 59.3988 15.392 58.7388 15.068C58.0908 14.744 57.5868 14.282 57.2268 13.682C56.8668 13.07 56.6868 12.35 56.6868 11.522C56.6868 10.754 56.8608 10.058 57.2088 9.434C57.5688 8.81 58.0908 8.318 58.7748 7.958C59.4708 7.586 60.3288 7.4 61.3488 7.4H65.9568C66.0888 7.4 66.1968 7.442 66.2808 7.526C66.3648 7.61 66.4068 7.718 66.4068 7.85V19.55C66.4068 19.682 66.3648 19.79 66.2808 19.874C66.1968 19.958 66.0888 20 65.9568 20H63.9948ZM56.7948 20C56.6868 20 56.5968 19.964 56.5248 19.892C56.4528 19.808 56.4168 19.718 56.4168 19.622C56.4168 19.562 56.4348 19.496 56.4708 19.424L59.3328 14.672L62.0148 15.122L59.5128 19.514C59.4528 19.634 59.3688 19.748 59.2608 19.856C59.1528 19.952 58.9968 20 58.7928 20H56.7948ZM61.4388 13.286H63.5448V9.65H61.4388C60.8628 9.65 60.4188 9.824 60.1068 10.172C59.7948 10.52 59.6388 10.97 59.6388 11.522C59.6388 12.086 59.7888 12.524 60.0888 12.836C60.3888 13.136 60.8388 13.286 61.4388 13.286ZM69.5281 20C69.3961 20 69.2881 19.958 69.2041 19.874C69.1201 19.79 69.0781 19.682 69.0781 19.55V7.85C69.0781 7.718 69.1201 7.61 69.2041 7.526C69.2881 7.442 69.3961 7.4 69.5281 7.4H71.4901C71.6221 7.4 71.7301 7.442 71.8141 7.526C71.8981 7.61 71.9401 7.718 71.9401 7.85V12.35H73.2721L76.0621 7.742C76.1221 7.646 76.2061 7.568 76.3141 7.508C76.4221 7.436 76.5601 7.4 76.7281 7.4H78.9061C79.0261 7.4 79.1161 7.442 79.1761 7.526C79.2481 7.598 79.2841 7.682 79.2841 7.778C79.2841 7.85 79.2601 7.922 79.2121 7.994L75.8461 13.466L79.5541 19.388C79.5781 19.436 79.5901 19.502 79.5901 19.586C79.5901 19.706 79.5481 19.808 79.4641 19.892C79.3921 19.964 79.3021 20 79.1941 20H76.9441C76.7641 20 76.6321 19.964 76.5481 19.892C76.4641 19.808 76.3981 19.736 76.3501 19.676L73.3801 14.906H71.9401V19.55C71.9401 19.682 71.8981 19.79 71.8141 19.874C71.7301 19.958 71.6221 20 71.4901 20H69.5281ZM82.3904 20C82.2704 20 82.1684 19.958 82.0844 19.874C82.0004 19.79 81.9584 19.682 81.9584 19.55V17.948C81.9584 17.816 82.0004 17.708 82.0844 17.624C82.1684 17.54 82.2704 17.498 82.3904 17.498H83.0744C83.4104 17.498 83.6984 17.432 83.9384 17.3C84.1784 17.156 84.3944 16.94 84.5864 16.652C84.7904 16.352 84.9944 15.968 85.1984 15.5L88.5824 7.76C88.6304 7.64 88.6964 7.55 88.7804 7.49C88.8764 7.43 88.9844 7.4 89.1044 7.4H91.1024C91.2104 7.4 91.3004 7.442 91.3724 7.526C91.4564 7.598 91.4984 7.682 91.4984 7.778C91.4984 7.826 91.4864 7.88 91.4624 7.94C91.4504 7.988 91.4324 8.036 91.4084 8.084L87.8084 16.328C87.5204 17 87.2384 17.57 86.9624 18.038C86.6864 18.506 86.3864 18.884 86.0624 19.172C85.7384 19.46 85.3544 19.67 84.9104 19.802C84.4664 19.934 83.9264 20 83.2904 20H82.3904ZM85.0724 16.814L80.2844 7.958C80.2604 7.91 80.2484 7.856 80.2484 7.796C80.2484 7.7 80.2904 7.61 80.3744 7.526C80.4584 7.442 80.5544 7.4 80.6624 7.4H82.7684C82.8884 7.4 82.9844 7.43 83.0564 7.49C83.1404 7.55 83.2124 7.64 83.2724 7.76L86.5484 14.006L85.0724 16.814ZM93.2586 20C93.1266 20 93.0186 19.958 92.9346 19.874C92.8506 19.79 92.8086 19.682 92.8086 19.55V7.85C92.8086 7.718 92.8506 7.61 92.9346 7.526C93.0186 7.442 93.1266 7.4 93.2586 7.4H95.2206C95.3526 7.4 95.4606 7.442 95.5446 7.526C95.6286 7.61 95.6706 7.718 95.6706 7.85V17.444H98.8746V7.85C98.8746 7.718 98.9166 7.61 99.0006 7.526C99.0846 7.442 99.1866 7.4 99.3066 7.4H101.287C101.419 7.4 101.527 7.442 101.611 7.526C101.695 7.61 101.737 7.718 101.737 7.85V17.444H104.923V7.85C104.923 7.718 104.965 7.61 105.049 7.526C105.133 7.442 105.241 7.4 105.373 7.4H107.335C107.467 7.4 107.575 7.442 107.659 7.526C107.743 7.61 107.785 7.718 107.785 7.85V19.55C107.785 19.682 107.743 19.79 107.659 19.874C107.575 19.958 107.467 20 107.335 20H93.2586ZM110.907 20C110.775 20 110.667 19.958 110.583 19.874C110.499 19.79 110.457 19.682 110.457 19.55V7.85C110.457 7.718 110.499 7.61 110.583 7.526C110.667 7.442 110.775 7.4 110.907 7.4H119.061C119.193 7.4 119.301 7.442 119.385 7.526C119.469 7.61 119.511 7.718 119.511 7.85V9.29C119.511 9.41 119.469 9.512 119.385 9.596C119.301 9.68 119.193 9.722 119.061 9.722H113.229V12.548H118.665C118.797 12.548 118.905 12.59 118.989 12.674C119.073 12.758 119.115 12.866 119.115 12.998V14.33C119.115 14.45 119.073 14.552 118.989 14.636C118.905 14.72 118.797 14.762 118.665 14.762H113.229V17.678H119.205C119.337 17.678 119.445 17.72 119.529 17.804C119.613 17.888 119.655 17.996 119.655 18.128V19.55C119.655 19.682 119.613 19.79 119.529 19.874C119.445 19.958 119.337 20 119.205 20H110.907ZM122.245 20C122.113 20 122.005 19.958 121.921 19.874C121.837 19.79 121.795 19.682 121.795 19.55V7.85C121.795 7.718 121.837 7.61 121.921 7.526C122.005 7.442 122.113 7.4 122.245 7.4H127.591C128.587 7.4 129.403 7.544 130.039 7.832C130.675 8.12 131.143 8.528 131.443 9.056C131.755 9.584 131.911 10.202 131.911 10.91C131.911 11.354 131.827 11.744 131.659 12.08C131.503 12.416 131.305 12.692 131.065 12.908C130.837 13.124 130.615 13.286 130.399 13.394C130.867 13.61 131.275 13.97 131.623 14.474C131.983 14.966 132.163 15.554 132.163 16.238C132.163 16.994 131.995 17.654 131.659 18.218C131.323 18.782 130.825 19.22 130.165 19.532C129.505 19.844 128.701 20 127.753 20H122.245ZM124.657 17.894H127.411C127.999 17.894 128.443 17.732 128.743 17.408C129.043 17.072 129.193 16.676 129.193 16.22C129.193 15.752 129.037 15.362 128.725 15.05C128.425 14.726 127.987 14.564 127.411 14.564H124.657V17.894ZM124.657 12.494H127.249C127.813 12.494 128.233 12.356 128.509 12.08C128.797 11.792 128.941 11.426 128.941 10.982C128.941 10.538 128.797 10.184 128.509 9.92C128.233 9.644 127.813 9.506 127.249 9.506H124.657V12.494Z" fill="#443E3E"/>
<path d="M235.805 20C235.712 20 235.633 19.972 235.567 19.916C235.511 19.8507 235.483 19.7713 235.483 19.678V11.838L233.159 13.63C233.085 13.686 233.005 13.7093 232.921 13.7C232.837 13.6907 232.767 13.6487 232.711 13.574L232.347 13.112C232.291 13.028 232.268 12.944 232.277 12.86C232.296 12.776 232.343 12.706 232.417 12.65L235.469 10.298C235.535 10.2513 235.595 10.2233 235.651 10.214C235.707 10.2047 235.768 10.2 235.833 10.2H236.547C236.641 10.2 236.715 10.2327 236.771 10.298C236.827 10.354 236.855 10.4287 236.855 10.522V19.678C236.855 19.7713 236.827 19.8507 236.771 19.916C236.715 19.972 236.641 20 236.547 20H235.805ZM240.016 20C239.932 20 239.862 19.972 239.806 19.916C239.759 19.8507 239.736 19.776 239.736 19.692C239.736 19.664 239.745 19.622 239.764 19.566L243.25 11.418H238.658C238.564 11.418 238.485 11.39 238.42 11.334C238.364 11.2687 238.336 11.1893 238.336 11.096V10.536C238.336 10.4333 238.364 10.354 238.42 10.298C238.485 10.2327 238.564 10.2 238.658 10.2H244.398C244.5 10.2 244.58 10.2327 244.636 10.298C244.701 10.354 244.734 10.4333 244.734 10.536V11.054C244.734 11.1753 244.724 11.2733 244.706 11.348C244.687 11.4227 244.659 11.5067 244.622 11.6L241.164 19.65C241.136 19.7247 241.089 19.804 241.024 19.888C240.968 19.9627 240.884 20 240.772 20H240.016ZM245.451 20C245.358 20 245.279 19.972 245.213 19.916C245.157 19.8507 245.129 19.7713 245.129 19.678V18.67C245.129 18.5767 245.157 18.502 245.213 18.446C245.279 18.3807 245.358 18.348 245.451 18.348H246.459C246.553 18.348 246.627 18.3807 246.683 18.446C246.749 18.502 246.781 18.5767 246.781 18.67V19.678C246.781 19.7713 246.749 19.8507 246.683 19.916C246.627 19.972 246.553 20 246.459 20H245.451ZM251.952 20.14C251.308 20.14 250.762 20.042 250.314 19.846C249.875 19.6407 249.516 19.3607 249.236 19.006C248.956 18.6513 248.75 18.2453 248.62 17.788C248.498 17.3307 248.428 16.8453 248.41 16.332C248.4 16.08 248.391 15.814 248.382 15.534C248.382 15.254 248.382 14.974 248.382 14.694C248.391 14.4047 248.4 14.1293 248.41 13.868C248.419 13.3547 248.489 12.8693 248.62 12.412C248.76 11.9453 248.965 11.5393 249.236 11.194C249.516 10.8393 249.88 10.564 250.328 10.368C250.776 10.1627 251.317 10.06 251.952 10.06C252.596 10.06 253.137 10.1627 253.576 10.368C254.024 10.564 254.388 10.8393 254.668 11.194C254.948 11.5393 255.153 11.9453 255.284 12.412C255.424 12.8693 255.498 13.3547 255.508 13.868C255.517 14.1293 255.522 14.4047 255.522 14.694C255.531 14.974 255.531 15.254 255.522 15.534C255.522 15.814 255.517 16.08 255.508 16.332C255.498 16.8453 255.424 17.3307 255.284 17.788C255.153 18.2453 254.948 18.6513 254.668 19.006C254.397 19.3607 254.038 19.6407 253.59 19.846C253.151 20.042 252.605 20.14 251.952 20.14ZM251.952 18.95C252.68 18.95 253.216 18.712 253.562 18.236C253.916 17.7507 254.098 17.0927 254.108 16.262C254.126 15.9913 254.136 15.73 254.136 15.478C254.136 15.2167 254.136 14.96 254.136 14.708C254.136 14.4467 254.126 14.19 254.108 13.938C254.098 13.126 253.916 12.4773 253.562 11.992C253.216 11.4973 252.68 11.25 251.952 11.25C251.233 11.25 250.696 11.4973 250.342 11.992C249.996 12.4773 249.814 13.126 249.796 13.938C249.796 14.19 249.791 14.4467 249.782 14.708C249.782 14.96 249.782 15.2167 249.782 15.478C249.791 15.73 249.796 15.9913 249.796 16.262C249.814 17.0927 250.001 17.7507 250.356 18.236C250.71 18.712 251.242 18.95 251.952 18.95ZM260.852 20.14C260.311 20.14 259.812 20.0747 259.354 19.944C258.906 19.804 258.519 19.608 258.192 19.356C257.875 19.0947 257.628 18.782 257.45 18.418C257.273 18.054 257.184 17.6433 257.184 17.186C257.184 16.6167 257.32 16.1267 257.59 15.716C257.87 15.3053 258.239 14.9927 258.696 14.778C258.332 14.5633 258.048 14.2833 257.842 13.938C257.637 13.5927 257.534 13.182 257.534 12.706C257.534 12.146 257.67 11.6747 257.94 11.292C258.22 10.9 258.608 10.5967 259.102 10.382C259.606 10.1673 260.19 10.06 260.852 10.06C261.506 10.06 262.08 10.1673 262.574 10.382C263.078 10.5873 263.466 10.886 263.736 11.278C264.016 11.67 264.156 12.1413 264.156 12.692C264.156 13.168 264.054 13.5833 263.848 13.938C263.643 14.2833 263.363 14.5633 263.008 14.778C263.466 14.9927 263.83 15.3053 264.1 15.716C264.38 16.1267 264.52 16.6167 264.52 17.186C264.52 17.7927 264.366 18.32 264.058 18.768C263.75 19.2067 263.321 19.5473 262.77 19.79C262.22 20.0233 261.58 20.14 260.852 20.14ZM260.852 19.02C261.282 19.02 261.669 18.9453 262.014 18.796C262.36 18.6467 262.635 18.4367 262.84 18.166C263.046 17.886 263.148 17.5593 263.148 17.186C263.148 16.8033 263.046 16.4813 262.84 16.22C262.635 15.9493 262.36 15.744 262.014 15.604C261.669 15.4547 261.282 15.38 260.852 15.38C260.423 15.38 260.031 15.4547 259.676 15.604C259.331 15.744 259.056 15.9493 258.85 16.22C258.645 16.4813 258.542 16.8033 258.542 17.186C258.542 17.5593 258.645 17.886 258.85 18.166C259.056 18.4367 259.331 18.6467 259.676 18.796C260.031 18.9453 260.423 19.02 260.852 19.02ZM260.852 14.274C261.207 14.274 261.534 14.2087 261.832 14.078C262.14 13.9473 262.383 13.77 262.56 13.546C262.747 13.322 262.84 13.0513 262.84 12.734C262.84 12.4167 262.752 12.1413 262.574 11.908C262.406 11.6747 262.168 11.4973 261.86 11.376C261.562 11.2453 261.226 11.18 260.852 11.18C260.479 11.18 260.138 11.2453 259.83 11.376C259.532 11.4973 259.294 11.6747 259.116 11.908C258.939 12.1413 258.85 12.4167 258.85 12.734C258.85 13.0607 258.939 13.3407 259.116 13.574C259.294 13.798 259.532 13.9707 259.83 14.092C260.138 14.2133 260.479 14.274 260.852 14.274ZM266.424 20C266.331 20 266.251 19.972 266.186 19.916C266.13 19.8507 266.102 19.7713 266.102 19.678V18.67C266.102 18.5767 266.13 18.502 266.186 18.446C266.251 18.3807 266.331 18.348 266.424 18.348H267.432C267.525 18.348 267.6 18.3807 267.656 18.446C267.721 18.502 267.754 18.5767 267.754 18.67V19.678C267.754 19.7713 267.721 19.8507 267.656 19.916C267.6 19.972 267.525 20 267.432 20H266.424ZM269.699 20C269.606 20 269.527 19.972 269.461 19.916C269.405 19.8507 269.377 19.7713 269.377 19.678V19.23C269.377 19.146 269.401 19.0527 269.447 18.95C269.494 18.8473 269.587 18.7353 269.727 18.614L272.695 15.646C273.171 15.2447 273.545 14.904 273.815 14.624C274.095 14.3347 274.291 14.0593 274.403 13.798C274.525 13.5367 274.585 13.266 274.585 12.986C274.585 12.454 274.436 12.034 274.137 11.726C273.839 11.4087 273.395 11.25 272.807 11.25C272.434 11.25 272.112 11.3293 271.841 11.488C271.571 11.6373 271.356 11.8473 271.197 12.118C271.048 12.3793 270.95 12.678 270.903 13.014C270.885 13.1353 270.833 13.2193 270.749 13.266C270.675 13.3127 270.605 13.336 270.539 13.336H269.811C269.727 13.336 269.657 13.3127 269.601 13.266C269.545 13.21 269.517 13.1447 269.517 13.07C269.527 12.7153 269.601 12.3607 269.741 12.006C269.881 11.642 270.087 11.3153 270.357 11.026C270.637 10.7367 270.978 10.5033 271.379 10.326C271.79 10.1393 272.266 10.046 272.807 10.046C273.545 10.046 274.147 10.1813 274.613 10.452C275.089 10.7133 275.439 11.0633 275.663 11.502C275.887 11.9407 275.999 12.4213 275.999 12.944C275.999 13.3547 275.929 13.7327 275.789 14.078C275.649 14.414 275.444 14.7453 275.173 15.072C274.912 15.3893 274.585 15.716 274.193 16.052L271.505 18.782H275.873C275.976 18.782 276.055 18.81 276.111 18.866C276.177 18.922 276.209 19.0013 276.209 19.104V19.678C276.209 19.7713 276.177 19.8507 276.111 19.916C276.055 19.972 275.976 20 275.873 20H269.699ZM281.346 20.14C280.702 20.14 280.156 20.042 279.708 19.846C279.27 19.6407 278.91 19.3607 278.63 19.006C278.35 18.6513 278.145 18.2453 278.014 17.788C277.893 17.3307 277.823 16.8453 277.804 16.332C277.795 16.08 277.786 15.814 277.776 15.534C277.776 15.254 277.776 14.974 277.776 14.694C277.786 14.4047 277.795 14.1293 277.804 13.868C277.814 13.3547 277.884 12.8693 278.014 12.412C278.154 11.9453 278.36 11.5393 278.63 11.194C278.91 10.8393 279.274 10.564 279.722 10.368C280.17 10.1627 280.712 10.06 281.346 10.06C281.99 10.06 282.532 10.1627 282.97 10.368C283.418 10.564 283.782 10.8393 284.062 11.194C284.342 11.5393 284.548 11.9453 284.678 12.412C284.818 12.8693 284.893 13.3547 284.902 13.868C284.912 14.1293 284.916 14.4047 284.916 14.694C284.926 14.974 284.926 15.254 284.916 15.534C284.916 15.814 284.912 16.08 284.902 16.332C284.893 16.8453 284.818 17.3307 284.678 17.788C284.548 18.2453 284.342 18.6513 284.062 19.006C283.792 19.3607 283.432 19.6407 282.984 19.846C282.546 20.042 282 20.14 281.346 20.14ZM281.346 18.95C282.074 18.95 282.611 18.712 282.956 18.236C283.311 17.7507 283.493 17.0927 283.502 16.262C283.521 15.9913 283.53 15.73 283.53 15.478C283.53 15.2167 283.53 14.96 283.53 14.708C283.53 14.4467 283.521 14.19 283.502 13.938C283.493 13.126 283.311 12.4773 282.956 11.992C282.611 11.4973 282.074 11.25 281.346 11.25C280.628 11.25 280.091 11.4973 279.736 11.992C279.391 12.4773 279.209 13.126 279.19 13.938C279.19 14.19 279.186 14.4467 279.176 14.708C279.176 14.96 279.176 15.2167 279.176 15.478C279.186 15.73 279.19 15.9913 279.19 16.262C279.209 17.0927 279.396 17.7507 279.75 18.236C280.105 18.712 280.637 18.95 281.346 18.95ZM286.803 20C286.71 20 286.63 19.972 286.565 19.916C286.509 19.8507 286.481 19.7713 286.481 19.678V19.23C286.481 19.146 286.504 19.0527 286.551 18.95C286.598 18.8473 286.691 18.7353 286.831 18.614L289.799 15.646C290.275 15.2447 290.648 14.904 290.919 14.624C291.199 14.3347 291.395 14.0593 291.507 13.798C291.628 13.5367 291.689 13.266 291.689 12.986C291.689 12.454 291.54 12.034 291.241 11.726C290.942 11.4087 290.499 11.25 289.911 11.25C289.538 11.25 289.216 11.3293 288.945 11.488C288.674 11.6373 288.46 11.8473 288.301 12.118C288.152 12.3793 288.054 12.678 288.007 13.014C287.988 13.1353 287.937 13.2193 287.853 13.266C287.778 13.3127 287.708 13.336 287.643 13.336H286.915C286.831 13.336 286.761 13.3127 286.705 13.266C286.649 13.21 286.621 13.1447 286.621 13.07C286.63 12.7153 286.705 12.3607 286.845 12.006C286.985 11.642 287.19 11.3153 287.461 11.026C287.741 10.7367 288.082 10.5033 288.483 10.326C288.894 10.1393 289.37 10.046 289.911 10.046C290.648 10.046 291.25 10.1813 291.717 10.452C292.193 10.7133 292.543 11.0633 292.767 11.502C292.991 11.9407 293.103 12.4213 293.103 12.944C293.103 13.3547 293.033 13.7327 292.893 14.078C292.753 14.414 292.548 14.7453 292.277 15.072C292.016 15.3893 291.689 15.716 291.297 16.052L288.609 18.782H292.977C293.08 18.782 293.159 18.81 293.215 18.866C293.28 18.922 293.313 19.0013 293.313 19.104V19.678C293.313 19.7713 293.28 19.8507 293.215 19.916C293.159 19.972 293.08 20 292.977 20H286.803ZM297.876 20C297.782 20 297.703 19.972 297.638 19.916C297.582 19.8507 297.554 19.7713 297.554 19.678V11.838L295.23 13.63C295.155 13.686 295.076 13.7093 294.992 13.7C294.908 13.6907 294.838 13.6487 294.782 13.574L294.418 13.112C294.362 13.028 294.338 12.944 294.348 12.86C294.366 12.776 294.413 12.706 294.488 12.65L297.54 10.298C297.605 10.2513 297.666 10.2233 297.722 10.214C297.778 10.2047 297.838 10.2 297.904 10.2H298.618C298.711 10.2 298.786 10.2327 298.842 10.298C298.898 10.354 298.926 10.4287 298.926 10.522V19.678C298.926 19.7713 298.898 19.8507 298.842 19.916C298.786 19.972 298.711 20 298.618 20H297.876Z" fill="#999999"/>
<path fill-rule="evenodd" clip-rule="evenodd" d="M9.69661 37.0602C9.6261 37.0933 9.53665 37.164 9.49782 37.2173C9.45899 37.2707 8.8086 38.5696 8.05258 40.1038L6.67794 42.8932L3.55438 43.3468C1.65594 43.6225 0.384068 43.8234 0.311607 43.8591C0.173677 43.927 0.0505914 44.1019 0.0152008 44.2802C-0.0429242 44.573 -0.0218694 44.5979 1.74774 46.3247C2.66294 47.2177 3.68973 48.2161 4.02954 48.5433L4.64731 49.1382L4.12102 52.2057C3.83153 53.8928 3.59461 55.3418 3.59454 55.4257C3.59403 55.844 4.09063 56.1181 4.49567 55.9232C4.59075 55.8774 5.86071 55.213 7.31778 54.4467C8.86266 53.6343 9.99497 53.0605 10.034 53.0702C10.0709 53.0794 11.2781 53.7062 12.7168 54.463C15.9196 56.1479 15.6375 56.0108 15.8518 55.9878C16.1563 55.9551 16.4071 55.701 16.4065 55.4257C16.4064 55.3418 16.1694 53.8928 15.8799 52.2057L15.3536 49.1382L15.9715 48.5433C16.3114 48.2161 17.3382 47.2177 18.2534 46.3247C20.0231 44.5979 20.0441 44.573 19.986 44.2802C19.9504 44.101 19.8273 43.9269 19.6875 43.8581C19.6124 43.8211 18.3827 43.6267 16.4534 43.3469C14.7413 43.0986 13.3279 42.8778 13.3124 42.8563C13.297 42.8349 12.6746 41.5791 11.9291 40.0658C11.1838 38.5525 10.5419 37.2704 10.5028 37.2167C10.354 37.012 9.96165 36.9358 9.69661 37.0602Z" fill="#FCCD05"/>
<path fill-rule="evenodd" clip-rule="evenodd" d="M34.6966 37.0602C34.6261 37.0933 34.5366 37.164 34.4978 37.2173C34.459 37.2707 33.8086 38.5696 33.0526 40.1038L31.6779 42.8932L28.5544 43.3468C26.6559 43.6225 25.3841 43.8234 25.3116 43.8591C25.1737 43.927 25.0506 44.1019 25.0152 44.2802C24.9571 44.573 24.9781 44.5979 26.7477 46.3247C27.6629 47.2177 28.6897 48.2161 29.0295 48.5433L29.6473 49.1382L29.121 52.2057C28.8315 53.8928 28.5946 55.3418 28.5945 55.4257C28.594 55.844 29.0906 56.1181 29.4957 55.9232C29.5907 55.8774 30.8607 55.213 32.3178 54.4467C33.8627 53.6343 34.995 53.0605 35.034 53.0702C35.0709 53.0794 36.2781 53.7062 37.7168 54.463C40.9196 56.1479 40.6375 56.0108 40.8518 55.9878C41.1563 55.9551 41.4071 55.701 41.4065 55.4257C41.4064 55.3418 41.1694 53.8928 40.8799 52.2057L40.3536 49.1382L40.9715 48.5433C41.3114 48.2161 42.3382 47.2177 43.2534 46.3247C45.0231 44.5979 45.0441 44.573 44.986 44.2802C44.9504 44.101 44.8273 43.9269 44.6875 43.8581C44.6124 43.8211 43.3827 43.6267 41.4534 43.3469C39.7413 43.0986 38.3279 42.8778 38.3124 42.8563C38.297 42.8349 37.6746 41.5791 36.9291 40.0658C36.1838 38.5525 35.5419 37.2704 35.5028 37.2167C35.354 37.012 34.9616 36.9358 34.6966 37.0602Z" fill="#FCCD05"/>
<path fill-rule="evenodd" clip-rule="evenodd" d="M59.6966 37.0602C59.6261 37.0933 59.5366 37.164 59.4978 37.2173C59.459 37.2707 58.8086 38.5696 58.0526 40.1038L56.6779 42.8932L53.5544 43.3468C51.6559 43.6225 50.3841 43.8234 50.3116 43.8591C50.1737 43.927 50.0506 44.1019 50.0152 44.2802C49.9571 44.573 49.9781 44.5979 51.7477 46.3247C52.6629 47.2177 53.6897 48.2161 54.0295 48.5433L54.6473 49.1382L54.121 52.2057C53.8315 53.8928 53.5946 55.3418 53.5945 55.4257C53.594 55.844 54.0906 56.1181 54.4957 55.9232C54.5907 55.8774 55.8607 55.213 57.3178 54.4467C58.8627 53.6343 59.995 53.0605 60.034 53.0702C60.0709 53.0794 61.2781 53.7062 62.7168 54.463C65.9196 56.1479 65.6375 56.0108 65.8518 55.9878C66.1563 55.9551 66.4071 55.701 66.4065 55.4257C66.4064 55.3418 66.1694 53.8928 65.8799 52.2057L65.3536 49.1382L65.9715 48.5433C66.3114 48.2161 67.3382 47.2177 68.2534 46.3247C70.0231 44.5979 70.0441 44.573 69.986 44.2802C69.9504 44.101 69.8273 43.9269 69.6875 43.8581C69.6124 43.8211 68.3827 43.6267 66.4534 43.3469C64.7413 43.0986 63.3279 42.8778 63.3124 42.8563C63.297 42.8349 62.6746 41.5791 61.9291 40.0658C61.1838 38.5525 60.5419 37.2704 60.5028 37.2167C60.354 37.012 59.9616 36.9358 59.6966 37.0602Z" fill="#FCCD05"/>
<path fill-rule="evenodd" clip-rule="evenodd" d="M84.6966 37.0602C84.6261 37.0933 84.5366 37.164 84.4978 37.2173C84.459 37.2707 83.8086 38.5696 83.0526 40.1038L81.6779 42.8932L78.5544 43.3468C76.6559 43.6225 75.3841 43.8234 75.3116 43.8591C75.1737 43.927 75.0506 44.1019 75.0152 44.2802C74.9571 44.573 74.9781 44.5979 76.7477 46.3247C77.6629 47.2177 78.6897 48.2161 79.0295 48.5433L79.6473 49.1382L79.121 52.2057C78.8315 53.8928 78.5946 55.3418 78.5945 55.4257C78.594 55.844 79.0906 56.1181 79.4957 55.9232C79.5907 55.8774 80.8607 55.213 82.3178 54.4467C83.8627 53.6343 84.995 53.0605 85.034 53.0702C85.0709 53.0794 86.2781 53.7062 87.7168 54.463C90.9196 56.1479 90.6375 56.0108 90.8518 55.9878C91.1563 55.9551 91.4071 55.701 91.4065 55.4257C91.4064 55.3418 91.1694 53.8928 90.8799 52.2057L90.3536 49.1382L90.9715 48.5433C91.3114 48.2161 92.3382 47.2177 93.2534 46.3247C95.0231 44.5979 95.0441 44.573 94.986 44.2802C94.9504 44.101 94.8273 43.9269 94.6875 43.8581C94.6124 43.8211 93.3827 43.6267 91.4534 43.3469C89.7413 43.0986 88.3279 42.8778 88.3124 42.8563C88.297 42.8349 87.6746 41.5791 86.9291 40.0658C86.1838 38.5525 85.5419 37.2704 85.5028 37.2167C85.354 37.012 84.9616 36.9358 84.6966 37.0602Z" fill="#FCCD05"/>
<path fill-rule="evenodd" clip-rule="evenodd" d="M109.697 37.0602C109.626 37.0933 109.537 37.164 109.498 37.2173C109.459 37.2707 108.809 38.5696 108.053 40.1038L106.678 42.8932L103.554 43.3468C101.656 43.6225 100.384 43.8234 100.312 43.8591C100.174 43.927 100.051 44.1019 100.015 44.2802C99.9571 44.573 99.9781 44.5979 101.748 46.3247C102.663 47.2177 103.69 48.2161 104.03 48.5433L104.647 49.1382L104.121 52.2057C103.832 53.8928 103.595 55.3418 103.595 55.4257C103.594 55.844 104.091 56.1181 104.496 55.9232C104.591 55.8774 105.861 55.213 107.318 54.4467C108.863 53.6343 109.995 53.0605 110.034 53.0702C110.071 53.0794 111.278 53.7062 112.717 54.463C115.92 56.1479 115.638 56.0108 115.852 55.9878C116.156 55.9551 116.407 55.701 116.407 55.4257C116.406 55.3418 116.169 53.8928 115.88 52.2057L115.354 49.1382L115.972 48.5433C116.311 48.2161 117.338 47.2177 118.253 46.3247C120.023 44.5979 120.044 44.573 119.986 44.2802C119.95 44.101 119.827 43.9269 119.688 43.8581C119.612 43.8211 118.383 43.6267 116.453 43.3469C114.741 43.0986 113.328 42.8778 113.312 42.8563C113.297 42.8349 112.675 41.5791 111.929 40.0658C111.184 38.5525 110.542 37.2704 110.503 37.2167C110.354 37.012 109.962 36.9358 109.697 37.0602Z" fill="#FDEFB6"/>
</svg>
